<svg width="20" height="20" viewBox="0 0 20 20" fill="none" xmlns="http://www.w3.org/2000/svg">
<path d="M14.192 10.4422L7.94205 16.6922C7.88398 16.7503 7.81504 16.7963 7.73917 16.8278C7.6633 16.8592 7.58198 16.8754 7.49986 16.8754C7.41774 16.8754 7.33642 16.8592 7.26055 16.8278C7.18468 16.7963 7.11574 16.7503 7.05767 16.6922C6.9996 16.6341 6.95354 16.5652 6.92211 16.4893C6.89069 16.4135 6.87451 16.3321 6.87451 16.25C6.87451 16.1679 6.89069 16.0866 6.92211 16.0107C6.95354 15.9348 6.9996 15.8659 7.05767 15.8078L12.8663 10L7.05767 4.1922C6.9404 4.07492 6.87451 3.91586 6.87451 3.75001C6.87451 3.58416 6.9404 3.4251 7.05767 3.30782C7.17495 3.19055 7.33401 3.12466 7.49986 3.12466C7.66571 3.12466 7.82477 3.19055 7.94205 3.30782L14.192 9.55782C14.2502 9.61587 14.2963 9.6848 14.3277 9.76067C14.3592 9.83655 14.3754 9.91788 14.3754 10C14.3754 10.0821 14.3592 10.1635 14.3277 10.2393C14.2963 10.3152 14.2502 10.3842 14.192 10.4422Z" fill="#419B44"/>
</svg>
