<svg width="32" height="33" viewBox="0 0 32 33" fill="none" xmlns="http://www.w3.org/2000/svg">
<g id="DownloadSimple">
<path id="Vector" d="M28 19.5V26.5C28 27.0304 27.7893 27.5391 27.4142 27.9142C27.0391 28.2893 26.5304 28.5 26 28.5H6C5.46957 28.5 4.96086 28.2893 4.58579 27.9142C4.21071 27.5391 4 27.0304 4 26.5V19.5C4 19.2348 4.10536 18.9804 4.29289 18.7929C4.48043 18.6054 4.73478 18.5 5 18.5C5.26522 18.5 5.51957 18.6054 5.70711 18.7929C5.89464 18.9804 6 19.2348 6 19.5V26.5H26V19.5C26 19.2348 26.1054 18.9804 26.2929 18.7929C26.4804 18.6054 26.7348 18.5 27 18.5C27.2652 18.5 27.5196 18.6054 27.7071 18.7929C27.8946 18.9804 28 19.2348 28 19.5ZM15.2925 20.2075C15.3854 20.3005 15.4957 20.3742 15.6171 20.4246C15.7385 20.4749 15.8686 20.5008 16 20.5008C16.1314 20.5008 16.2615 20.4749 16.3829 20.4246C16.5043 20.3742 16.6146 20.3005 16.7075 20.2075L21.7075 15.2075C21.8004 15.1146 21.8741 15.0043 21.9244 14.8829C21.9747 14.7615 22.0006 14.6314 22.0006 14.5C22.0006 14.3686 21.9747 14.2385 21.9244 14.1171C21.8741 13.9957 21.8004 13.8854 21.7075 13.7925C21.6146 13.6996 21.5043 13.6259 21.3829 13.5756C21.2615 13.5253 21.1314 13.4994 21 13.4994C20.8686 13.4994 20.7385 13.5253 20.6171 13.5756C20.4957 13.6259 20.3854 13.6996 20.2925 13.7925L17 17.0863V5.5C17 5.23478 16.8946 4.98043 16.7071 4.79289C16.5196 4.60536 16.2652 4.5 16 4.5C15.7348 4.5 15.4804 4.60536 15.2929 4.79289C15.1054 4.98043 15 5.23478 15 5.5V17.0863L11.7075 13.7925C11.5199 13.6049 11.2654 13.4994 11 13.4994C10.7346 13.4994 10.4801 13.6049 10.2925 13.7925C10.1049 13.9801 9.99944 14.2346 9.99944 14.5C9.99944 14.7654 10.1049 15.0199 10.2925 15.2075L15.2925 20.2075Z" fill="#61656F" fill-opacity="0.5"/>
</g>
</svg>
