<svg width="42" height="43" viewBox="0 0 42 43" fill="none" xmlns="http://www.w3.org/2000/svg">
<g id="FilePdf">
<path id="Vector" opacity="0.2" d="M34.125 14.9375H24.9375V5.75L34.125 14.9375Z" fill="#419B44"/>
<path id="Vector_2" d="M36.75 25.4375C36.75 25.7856 36.6117 26.1194 36.3656 26.3656C36.1194 26.6117 35.7856 26.75 35.4375 26.75H31.5V29.375H34.125C34.4731 29.375 34.8069 29.5133 35.0531 29.7594C35.2992 30.0056 35.4375 30.3394 35.4375 30.6875C35.4375 31.0356 35.2992 31.3694 35.0531 31.6156C34.8069 31.8617 34.4731 32 34.125 32H31.5V34.625C31.5 34.9731 31.3617 35.3069 31.1156 35.5531C30.8694 35.7992 30.5356 35.9375 30.1875 35.9375C29.8394 35.9375 29.5056 35.7992 29.2594 35.5531C29.0133 35.3069 28.875 34.9731 28.875 34.625V25.4375C28.875 25.0894 29.0133 24.7556 29.2594 24.5094C29.5056 24.2633 29.8394 24.125 30.1875 24.125H35.4375C35.7856 24.125 36.1194 24.2633 36.3656 24.5094C36.6117 24.7556 36.75 25.0894 36.75 25.4375ZM15.0938 28.7188C15.0938 29.9371 14.6098 31.1055 13.7483 31.967C12.8868 32.8285 11.7183 33.3125 10.5 33.3125H9.1875V34.625C9.1875 34.9731 9.04922 35.3069 8.80308 35.5531C8.55694 35.7992 8.2231 35.9375 7.875 35.9375C7.5269 35.9375 7.19306 35.7992 6.94692 35.5531C6.70078 35.3069 6.5625 34.9731 6.5625 34.625V25.4375C6.5625 25.0894 6.70078 24.7556 6.94692 24.5094C7.19306 24.2633 7.5269 24.125 7.875 24.125H10.5C11.7183 24.125 12.8868 24.609 13.7483 25.4705C14.6098 26.332 15.0938 27.5004 15.0938 28.7188ZM12.4688 28.7188C12.4688 28.1966 12.2613 27.6958 11.8921 27.3266C11.5229 26.9574 11.0221 26.75 10.5 26.75H9.1875V30.6875H10.5C11.0221 30.6875 11.5229 30.4801 11.8921 30.1109C12.2613 29.7417 12.4688 29.2409 12.4688 28.7188ZM26.9062 30.0312C26.9062 31.5977 26.284 33.1 25.1763 34.2076C24.0687 35.3152 22.5664 35.9375 21 35.9375H18.375C18.0269 35.9375 17.6931 35.7992 17.4469 35.5531C17.2008 35.3069 17.0625 34.9731 17.0625 34.625V25.4375C17.0625 25.0894 17.2008 24.7556 17.4469 24.5094C17.6931 24.2633 18.0269 24.125 18.375 24.125H21C22.5664 24.125 24.0687 24.7473 25.1763 25.8549C26.284 26.9625 26.9062 28.4648 26.9062 30.0312ZM24.2812 30.0312C24.2812 29.161 23.9355 28.3264 23.3202 27.7111C22.7048 27.0957 21.8702 26.75 21 26.75H19.6875V33.3125H21C21.8702 33.3125 22.7048 32.9668 23.3202 32.3514C23.9355 31.7361 24.2812 30.9015 24.2812 30.0312ZM6.5625 18.875V7.0625C6.5625 6.36631 6.83906 5.69863 7.33134 5.20634C7.82363 4.71406 8.49131 4.4375 9.1875 4.4375H24.9375C25.1099 4.43736 25.2807 4.4712 25.44 4.53707C25.5993 4.60294 25.7441 4.69956 25.8661 4.82141L35.0536 14.0089C35.1754 14.1309 35.2721 14.2757 35.3379 14.435C35.4038 14.5943 35.4376 14.7651 35.4375 14.9375V18.875C35.4375 19.2231 35.2992 19.5569 35.0531 19.8031C34.8069 20.0492 34.4731 20.1875 34.125 20.1875C33.7769 20.1875 33.4431 20.0492 33.1969 19.8031C32.9508 19.5569 32.8125 19.2231 32.8125 18.875V16.25H24.9375C24.5894 16.25 24.2556 16.1117 24.0094 15.8656C23.7633 15.6194 23.625 15.2856 23.625 14.9375V7.0625H9.1875V18.875C9.1875 19.2231 9.04922 19.5569 8.80308 19.8031C8.55694 20.0492 8.2231 20.1875 7.875 20.1875C7.5269 20.1875 7.19306 20.0492 6.94692 19.8031C6.70078 19.5569 6.5625 19.2231 6.5625 18.875ZM26.25 13.625H30.957L26.25 8.91805V13.625Z" fill="#419B44"/>
</g>
</svg>
