<svg width="125" height="98" viewBox="0 0 125 98" fill="none" xmlns="http://www.w3.org/2000/svg">
<mask id="path-1-inside-1_27_1681" fill="white">
<path d="M0 0H125V98H0V0Z"/>
</mask>
<path d="M0 0H125V98H0V0Z" fill="#FAFAFA"/>
<path d="M124 0V98H126V0H124Z" fill="#ECEDEE" mask="url(#path-1-inside-1_27_1681)"/>
<path d="M62.5 36C59.9288 36 57.4154 36.7624 55.2776 38.1909C53.1398 39.6194 51.4735 41.6497 50.4896 44.0251C49.5056 46.4006 49.2482 49.0144 49.7498 51.5362C50.2514 54.0579 51.4895 56.3743 53.3076 58.1924C55.1257 60.0105 57.4421 61.2486 59.9638 61.7502C62.4856 62.2518 65.0995 61.9944 67.4749 61.0104C69.8503 60.0265 71.8807 58.3603 73.3091 56.2224C74.7376 54.0846 75.5 51.5712 75.5 49C75.4964 45.5533 74.1256 42.2488 71.6884 39.8116C69.2512 37.3744 65.9467 36.0036 62.5 36ZM62 42C62.2967 42 62.5867 42.088 62.8334 42.2528C63.08 42.4176 63.2723 42.6519 63.3858 42.926C63.4994 43.2001 63.5291 43.5017 63.4712 43.7926C63.4133 44.0836 63.2704 44.3509 63.0607 44.5607C62.8509 44.7704 62.5836 44.9133 62.2926 44.9712C62.0017 45.0291 61.7001 44.9994 61.426 44.8858C61.1519 44.7723 60.9176 44.58 60.7528 44.3334C60.588 44.0867 60.5 43.7967 60.5 43.5C60.5 43.1022 60.658 42.7206 60.9393 42.4393C61.2206 42.158 61.6022 42 62 42ZM63.5 56C62.9696 56 62.4609 55.7893 62.0858 55.4142C61.7107 55.0391 61.5 54.5304 61.5 54V49C61.2348 49 60.9804 48.8946 60.7929 48.7071C60.6054 48.5196 60.5 48.2652 60.5 48C60.5 47.7348 60.6054 47.4804 60.7929 47.2929C60.9804 47.1054 61.2348 47 61.5 47C62.0304 47 62.5391 47.2107 62.9142 47.5858C63.2893 47.9609 63.5 48.4696 63.5 49V54C63.7652 54 64.0196 54.1054 64.2071 54.2929C64.3946 54.4804 64.5 54.7348 64.5 55C64.5 55.2652 64.3946 55.5196 64.2071 55.7071C64.0196 55.8946 63.7652 56 63.5 56Z" fill="#419B44"/>
</svg>
