<svg width="201" height="42" viewBox="0 0 201 42" fill="none" xmlns="http://www.w3.org/2000/svg">
<g id="millwood 1">
<path id="Vector" d="M24.9558 30.5784L11.438 17.0533C7.70817 20.7852 7.70817 26.8466 11.438 30.5784C15.1678 34.3328 21.2259 34.3328 24.9558 30.5784Z" fill="#419B44"/>
<path id="Vector_2" d="M31.8053 26.2134L31.3984 10.6076L15.7783 10.2004L31.8053 26.2134Z" fill="#419B44"/>
<path id="Vector_3" d="M31.353 29.7869L12.2065 10.6301C11.6188 11.1277 11.0989 11.6479 10.6016 12.2359L29.7479 31.3926C30.3356 30.9177 30.8782 30.3749 31.353 29.7869Z" fill="#74787F"/>
<path id="Vector_4" d="M34.6767 11.9191L35.4904 8.91107L36.372 5.63159L33.0943 6.51366L30.0879 7.32788C31.8963 8.52659 33.456 10.0872 34.6767 11.9191Z" fill="#74787F"/>
<path id="Vector_5" d="M35.6934 13.6833C36.6428 15.6058 37.2306 17.7319 37.3661 19.9709L41.955 15.3796L35.6934 13.6833Z" fill="#74787F"/>
<path id="Vector_6" d="M39.5813 24.2229L37.3885 22.0291C37.2529 24.268 36.6652 26.3942 35.7158 28.3166L38.7222 27.5023L41.9999 26.6203L39.5813 24.2229Z" fill="#74787F"/>
<path id="Vector_7" d="M34.6767 30.0808C33.456 31.9128 31.8963 33.4734 30.0879 34.6721L33.0943 35.4863L36.372 36.3683L35.4904 33.0889L34.6767 30.0808Z" fill="#74787F"/>
<path id="Vector_8" d="M22.0176 37.3861L26.6065 41.9774L27.4881 38.6978L28.3018 35.6897C26.3803 36.6623 24.2555 37.2504 22.0176 37.3861Z" fill="#74787F"/>
<path id="Vector_9" d="M13.6758 35.7124L14.4895 38.7204L15.3711 41.9999L19.96 37.4087C17.7221 37.2504 15.5971 36.6623 13.6758 35.7124Z" fill="#74787F"/>
<path id="Vector_10" d="M7.30182 30.0808L6.48804 33.0889L5.60645 36.3683L8.88416 35.4863L11.8906 34.6721C10.0822 33.4734 8.52248 31.9128 7.30182 30.0808Z" fill="#74787F"/>
<path id="Vector_11" d="M4.61225 22.0291L0.0234375 26.6203L3.30115 27.5023L6.30762 28.3166C5.33561 26.3942 4.74787 24.268 4.61225 22.0291Z" fill="#74787F"/>
<path id="Vector_12" d="M6.28417 13.7059L3.27772 14.4976L0 15.3796L4.5888 19.9709C4.74704 17.7319 5.33477 15.6058 6.28417 13.7059Z" fill="#74787F"/>
<path id="Vector_13" d="M7.30182 11.9191C8.52248 10.0872 10.0822 8.52659 11.8906 7.32788L8.88416 6.51366L5.60645 5.63159L6.48804 8.91107L7.30182 11.9191Z" fill="#74787F"/>
<path id="Vector_14" d="M19.96 4.61386L15.3711 0.022583L14.4895 3.30206L13.6758 6.31014C15.5971 5.3376 17.7221 4.74956 19.96 4.61386Z" fill="#74787F"/>
<path id="Vector_15" d="M28.3006 6.28756L27.5094 3.27948L26.6278 0L22.0391 4.59128C24.2543 4.7496 26.3791 5.33764 28.3006 6.28756Z" fill="#74787F"/>
<path id="Vector_16" d="M22.9449 1.80933L21.0008 4.41029L19.0342 1.80933H22.9449Z" fill="#419B44"/>
<path id="Vector_17" d="M19.0342 40.1906L21.0008 37.5896L22.9449 40.1906H19.0342Z" fill="#419B44"/>
<path id="Vector_18" d="M13.1106 3.41516L12.7037 6.6268L9.69727 5.36025L13.1106 3.41516Z" fill="#419B44"/>
<path id="Vector_19" d="M28.8887 38.585L29.273 35.3733L32.2794 36.6399L28.8887 38.585Z" fill="#419B44"/>
<path id="Vector_20" d="M5.35711 9.70276L6.62299 12.7108L3.41309 13.1179L5.35711 9.70276Z" fill="#419B44"/>
<path id="Vector_21" d="M36.6204 32.2972L35.3545 29.2892L38.5643 28.9047L36.6204 32.2972Z" fill="#419B44"/>
<path id="Vector_22" d="M1.80859 19.0436L4.40816 21.0113L1.80859 22.9564V19.0436Z" fill="#419B44"/>
<path id="Vector_23" d="M40.169 22.9564L37.5693 21.0113L40.169 19.0436V22.9564Z" fill="#419B44"/>
<path id="Vector_24" d="M3.41309 28.9047L6.62299 29.2892L5.35711 32.2972L3.41309 28.9047Z" fill="#419B44"/>
<path id="Vector_25" d="M38.5643 13.1179L35.3545 12.7108L36.6204 9.70276L38.5643 13.1179Z" fill="#419B44"/>
<path id="Vector_26" d="M9.69727 36.6399L12.7037 35.3733L13.1106 38.585L9.69727 36.6399Z" fill="#419B44"/>
<path id="Vector_27" d="M32.2794 5.36025L29.273 6.6268L28.8887 3.41516L32.2794 5.36025Z" fill="#419B44"/>
<path id="Vector_28" d="M24.9558 30.5784L11.438 17.0533C7.70817 20.7852 7.70817 26.8466 11.438 30.5784C15.1678 34.3328 21.2259 34.3328 24.9558 30.5784Z" fill="#419B44"/>
<path id="Vector_29" d="M31.8053 26.2134L31.3984 10.6076L15.7783 10.2004L31.8053 26.2134Z" fill="#419B44"/>
<path id="Vector_30" d="M31.353 29.7869L12.2065 10.6301C11.6188 11.1277 11.0989 11.6479 10.6016 12.2359L29.7479 31.3926C30.3356 30.9177 30.8782 30.3749 31.353 29.7869Z" fill="#74787F"/>
<path id="Vector_31" d="M34.6767 11.9191L35.4904 8.91107L36.372 5.63159L33.0943 6.51366L30.0879 7.32788C31.8963 8.52659 33.456 10.0872 34.6767 11.9191Z" fill="#74787F"/>
<path id="Vector_32" d="M35.6934 13.6833C36.6428 15.6058 37.2306 17.7319 37.3661 19.9709L41.955 15.3796L35.6934 13.6833Z" fill="#74787F"/>
<path id="Vector_33" d="M39.5813 24.2229L37.3885 22.0291C37.2529 24.268 36.6652 26.3942 35.7158 28.3166L38.7222 27.5023L41.9999 26.6203L39.5813 24.2229Z" fill="#74787F"/>
<path id="Vector_34" d="M34.6767 30.0808C33.456 31.9128 31.8963 33.4734 30.0879 34.6721L33.0943 35.4863L36.372 36.3683L35.4904 33.0889L34.6767 30.0808Z" fill="#74787F"/>
<path id="Vector_35" d="M22.0176 37.3861L26.6065 41.9774L27.4881 38.6978L28.3018 35.6897C26.3803 36.6623 24.2555 37.2504 22.0176 37.3861Z" fill="#74787F"/>
<path id="Vector_36" d="M13.6758 35.7124L14.4895 38.7204L15.3711 41.9999L19.96 37.4087C17.7221 37.2504 15.5971 36.6623 13.6758 35.7124Z" fill="#74787F"/>
<path id="Vector_37" d="M7.30182 30.0808L6.48804 33.0889L5.60645 36.3683L8.88416 35.4863L11.8906 34.6721C10.0822 33.4734 8.52248 31.9128 7.30182 30.0808Z" fill="#74787F"/>
<path id="Vector_38" d="M4.61225 22.0291L0.0234375 26.6203L3.30115 27.5023L6.30762 28.3166C5.33561 26.3942 4.74787 24.268 4.61225 22.0291Z" fill="#74787F"/>
<path id="Vector_39" d="M6.28417 13.7059L3.27772 14.4976L0 15.3796L4.5888 19.9709C4.74704 17.7319 5.33477 15.6058 6.28417 13.7059Z" fill="#74787F"/>
<path id="Vector_40" d="M7.30182 11.9191C8.52248 10.0872 10.0822 8.52659 11.8906 7.32788L8.88416 6.51366L5.60645 5.63159L6.48804 8.91107L7.30182 11.9191Z" fill="#74787F"/>
<path id="Vector_41" d="M19.96 4.61386L15.3711 0.022583L14.4895 3.30206L13.6758 6.31014C15.5971 5.3376 17.7221 4.74956 19.96 4.61386Z" fill="#74787F"/>
<path id="Vector_42" d="M28.3006 6.28756L27.5094 3.27948L26.6278 0L22.0391 4.59128C24.2543 4.7496 26.3791 5.33764 28.3006 6.28756Z" fill="#74787F"/>
<path id="Vector_43" d="M22.9449 1.80933L21.0008 4.41029L19.0342 1.80933H22.9449Z" fill="#419B44"/>
<path id="Vector_44" d="M19.0342 40.1906L21.0008 37.5896L22.9449 40.1906H19.0342Z" fill="#419B44"/>
<path id="Vector_45" d="M13.1106 3.41516L12.7037 6.6268L9.69727 5.36025L13.1106 3.41516Z" fill="#419B44"/>
<path id="Vector_46" d="M28.8887 38.585L29.273 35.3733L32.2794 36.6399L28.8887 38.585Z" fill="#419B44"/>
<path id="Vector_47" d="M5.35711 9.70276L6.62299 12.7108L3.41309 13.1179L5.35711 9.70276Z" fill="#419B44"/>
<path id="Vector_48" d="M36.6204 32.2972L35.3545 29.2892L38.5643 28.9047L36.6204 32.2972Z" fill="#419B44"/>
<path id="Vector_49" d="M1.80859 19.0436L4.40816 21.0113L1.80859 22.9564V19.0436Z" fill="#419B44"/>
<path id="Vector_50" d="M40.169 22.9564L37.5693 21.0113L40.169 19.0436V22.9564Z" fill="#419B44"/>
<path id="Vector_51" d="M3.41309 28.9047L6.62299 29.2892L5.35711 32.2972L3.41309 28.9047Z" fill="#419B44"/>
<path id="Vector_52" d="M38.5643 13.1179L35.3545 12.7108L36.6204 9.70276L38.5643 13.1179Z" fill="#419B44"/>
<path id="Vector_53" d="M9.69727 36.6399L12.7037 35.3733L13.1106 38.585L9.69727 36.6399Z" fill="#419B44"/>
<path id="Vector_54" d="M32.2794 5.36025L29.273 6.6268L28.8887 3.41516L32.2794 5.36025Z" fill="#419B44"/>
<path id="Vector_55" d="M24.9558 30.5784L11.438 17.0533C7.70817 20.7852 7.70817 26.8466 11.438 30.5784C15.1678 34.3328 21.2259 34.3328 24.9558 30.5784Z" fill="#419B44"/>
<path id="Vector_56" d="M31.8053 26.2134L31.3984 10.6076L15.7783 10.2004L31.8053 26.2134Z" fill="#419B44"/>
<path id="Vector_57" d="M31.353 29.7869L12.2065 10.6301C11.6188 11.1277 11.0989 11.6479 10.6016 12.2359L29.7479 31.3926C30.3356 30.9177 30.8782 30.3749 31.353 29.7869Z" fill="#74787F"/>
<path id="Vector_58" d="M34.6767 11.9191L35.4904 8.91107L36.372 5.63159L33.0943 6.51366L30.0879 7.32788C31.8963 8.52659 33.456 10.0872 34.6767 11.9191Z" fill="#74787F"/>
<path id="Vector_59" d="M35.6934 13.6833C36.6428 15.6058 37.2306 17.7319 37.3661 19.9709L41.955 15.3796L35.6934 13.6833Z" fill="#74787F"/>
<path id="Vector_60" d="M39.5813 24.2229L37.3885 22.0291C37.2529 24.268 36.6652 26.3942 35.7158 28.3166L38.7222 27.5023L41.9999 26.6203L39.5813 24.2229Z" fill="#74787F"/>
<path id="Vector_61" d="M34.6767 30.0808C33.456 31.9128 31.8963 33.4734 30.0879 34.6721L33.0943 35.4863L36.372 36.3683L35.4904 33.0889L34.6767 30.0808Z" fill="#74787F"/>
<path id="Vector_62" d="M22.0176 37.3861L26.6065 41.9774L27.4881 38.6978L28.3018 35.6897C26.3803 36.6623 24.2555 37.2504 22.0176 37.3861Z" fill="#74787F"/>
<path id="Vector_63" d="M13.6758 35.7124L14.4895 38.7204L15.3711 41.9999L19.96 37.4087C17.7221 37.2504 15.5971 36.6623 13.6758 35.7124Z" fill="#74787F"/>
<path id="Vector_64" d="M7.30182 30.0808L6.48804 33.0889L5.60645 36.3683L8.88416 35.4863L11.8906 34.6721C10.0822 33.4734 8.52248 31.9128 7.30182 30.0808Z" fill="#74787F"/>
<path id="Vector_65" d="M4.61225 22.0291L0.0234375 26.6203L3.30115 27.5023L6.30762 28.3166C5.33561 26.3942 4.74787 24.268 4.61225 22.0291Z" fill="#74787F"/>
<path id="Vector_66" d="M6.28417 13.7059L3.27772 14.4976L0 15.3796L4.5888 19.9709C4.74704 17.7319 5.33477 15.6058 6.28417 13.7059Z" fill="#74787F"/>
<path id="Vector_67" d="M7.30182 11.9191C8.52248 10.0872 10.0822 8.52659 11.8906 7.32788L8.88416 6.51366L5.60645 5.63159L6.48804 8.91107L7.30182 11.9191Z" fill="#74787F"/>
<path id="Vector_68" d="M19.96 4.61386L15.3711 0.022583L14.4895 3.30206L13.6758 6.31014C15.5971 5.3376 17.7221 4.74956 19.96 4.61386Z" fill="#74787F"/>
<path id="Vector_69" d="M28.3006 6.28756L27.5094 3.27948L26.6278 0L22.0391 4.59128C24.2543 4.7496 26.3791 5.33764 28.3006 6.28756Z" fill="#74787F"/>
<path id="Vector_70" d="M22.9449 1.80933L21.0008 4.41029L19.0342 1.80933H22.9449Z" fill="#419B44"/>
<path id="Vector_71" d="M19.0342 40.1906L21.0008 37.5896L22.9449 40.1906H19.0342Z" fill="#419B44"/>
<path id="Vector_72" d="M13.1106 3.41516L12.7037 6.6268L9.69727 5.36025L13.1106 3.41516Z" fill="#419B44"/>
<path id="Vector_73" d="M28.8887 38.585L29.273 35.3733L32.2794 36.6399L28.8887 38.585Z" fill="#419B44"/>
<path id="Vector_74" d="M5.35711 9.70276L6.62299 12.7108L3.41309 13.1179L5.35711 9.70276Z" fill="#419B44"/>
<path id="Vector_75" d="M36.6204 32.2972L35.3545 29.2892L38.5643 28.9047L36.6204 32.2972Z" fill="#419B44"/>
<path id="Vector_76" d="M1.80859 19.0436L4.40816 21.0113L1.80859 22.9564V19.0436Z" fill="#419B44"/>
<path id="Vector_77" d="M40.169 22.9564L37.5693 21.0113L40.169 19.0436V22.9564Z" fill="#419B44"/>
<path id="Vector_78" d="M3.41309 28.9047L6.62299 29.2892L5.35711 32.2972L3.41309 28.9047Z" fill="#419B44"/>
<path id="Vector_79" d="M38.5643 13.1179L35.3545 12.7108L36.6204 9.70276L38.5643 13.1179Z" fill="#419B44"/>
<path id="Vector_80" d="M9.69727 36.6399L12.7037 35.3733L13.1106 38.585L9.69727 36.6399Z" fill="#419B44"/>
<path id="Vector_81" d="M32.2794 5.36025L29.273 6.6268L28.8887 3.41516L32.2794 5.36025Z" fill="#419B44"/>
<path id="Vector_82" d="M24.9558 30.5784L11.438 17.0533C7.70817 20.7852 7.70817 26.8466 11.438 30.5784C15.1678 34.3328 21.2259 34.3328 24.9558 30.5784Z" fill="#419B44"/>
<path id="Vector_83" d="M31.8053 26.2134L31.3984 10.6076L15.7783 10.2004L31.8053 26.2134Z" fill="#419B44"/>
<path id="Vector_84" d="M31.353 29.7869L12.2065 10.6301C11.6188 11.1277 11.0989 11.6479 10.6016 12.2359L29.7479 31.3926C30.3356 30.9177 30.8782 30.3749 31.353 29.7869Z" fill="#74787F"/>
<path id="Vector_85" d="M34.6767 11.9191L35.4904 8.91107L36.372 5.63159L33.0943 6.51366L30.0879 7.32788C31.8963 8.52659 33.456 10.0872 34.6767 11.9191Z" fill="#74787F"/>
<path id="Vector_86" d="M35.6934 13.6833C36.6428 15.6058 37.2306 17.7319 37.3661 19.9709L41.955 15.3796L35.6934 13.6833Z" fill="#74787F"/>
<path id="Vector_87" d="M39.5813 24.2229L37.3885 22.0291C37.2529 24.268 36.6652 26.3942 35.7158 28.3166L38.7222 27.5023L41.9999 26.6203L39.5813 24.2229Z" fill="#74787F"/>
<path id="Vector_88" d="M34.6767 30.0808C33.456 31.9128 31.8963 33.4734 30.0879 34.6721L33.0943 35.4863L36.372 36.3683L35.4904 33.0889L34.6767 30.0808Z" fill="#74787F"/>
<path id="Vector_89" d="M22.0176 37.3861L26.6065 41.9774L27.4881 38.6978L28.3018 35.6897C26.3803 36.6623 24.2555 37.2504 22.0176 37.3861Z" fill="#74787F"/>
<path id="Vector_90" d="M13.6758 35.7124L14.4895 38.7204L15.3711 41.9999L19.96 37.4087C17.7221 37.2504 15.5971 36.6623 13.6758 35.7124Z" fill="#74787F"/>
<path id="Vector_91" d="M7.30182 30.0808L6.48804 33.0889L5.60645 36.3683L8.88416 35.4863L11.8906 34.6721C10.0822 33.4734 8.52248 31.9128 7.30182 30.0808Z" fill="#74787F"/>
<path id="Vector_92" d="M4.61225 22.0291L0.0234375 26.6203L3.30115 27.5023L6.30762 28.3166C5.33561 26.3942 4.74787 24.268 4.61225 22.0291Z" fill="#74787F"/>
<path id="Vector_93" d="M6.28417 13.7059L3.27772 14.4976L0 15.3796L4.5888 19.9709C4.74704 17.7319 5.33477 15.6058 6.28417 13.7059Z" fill="#74787F"/>
<path id="Vector_94" d="M7.30182 11.9191C8.52248 10.0872 10.0822 8.52659 11.8906 7.32788L8.88416 6.51366L5.60645 5.63159L6.48804 8.91107L7.30182 11.9191Z" fill="#74787F"/>
<path id="Vector_95" d="M19.96 4.61386L15.3711 0.022583L14.4895 3.30206L13.6758 6.31014C15.5971 5.3376 17.7221 4.74956 19.96 4.61386Z" fill="#74787F"/>
<path id="Vector_96" d="M28.3006 6.28756L27.5094 3.27948L26.6278 0L22.0391 4.59128C24.2543 4.7496 26.3791 5.33764 28.3006 6.28756Z" fill="#74787F"/>
<path id="Vector_97" d="M22.9449 1.80933L21.0008 4.41029L19.0342 1.80933H22.9449Z" fill="#419B44"/>
<path id="Vector_98" d="M19.0342 40.1906L21.0008 37.5896L22.9449 40.1906H19.0342Z" fill="#419B44"/>
<path id="Vector_99" d="M13.1106 3.41516L12.7037 6.6268L9.69727 5.36025L13.1106 3.41516Z" fill="#419B44"/>
<path id="Vector_100" d="M28.8887 38.585L29.273 35.3733L32.2794 36.6399L28.8887 38.585Z" fill="#419B44"/>
<path id="Vector_101" d="M5.35711 9.70276L6.62299 12.7108L3.41309 13.1179L5.35711 9.70276Z" fill="#419B44"/>
<path id="Vector_102" d="M36.6204 32.2972L35.3545 29.2892L38.5643 28.9047L36.6204 32.2972Z" fill="#419B44"/>
<path id="Vector_103" d="M1.80859 19.0436L4.40816 21.0113L1.80859 22.9564V19.0436Z" fill="#419B44"/>
<path id="Vector_104" d="M40.169 22.9564L37.5693 21.0113L40.169 19.0436V22.9564Z" fill="#419B44"/>
<path id="Vector_105" d="M3.41309 28.9047L6.62299 29.2892L5.35711 32.2972L3.41309 28.9047Z" fill="#419B44"/>
<path id="Vector_106" d="M38.5643 13.1179L35.3545 12.7108L36.6204 9.70276L38.5643 13.1179Z" fill="#419B44"/>
<path id="Vector_107" d="M9.69727 36.6399L12.7037 35.3733L13.1106 38.585L9.69727 36.6399Z" fill="#419B44"/>
<path id="Vector_108" d="M32.2794 5.36025L29.273 6.6268L28.8887 3.41516L32.2794 5.36025Z" fill="#419B44"/>
<path id="Vector_109" d="M24.9558 30.5784L11.438 17.0533C7.70817 20.7852 7.70817 26.8466 11.438 30.5784C15.1678 34.3328 21.2259 34.3328 24.9558 30.5784Z" fill="#419B44"/>
<path id="Vector_110" d="M31.8053 26.2134L31.3984 10.6076L15.7783 10.2004L31.8053 26.2134Z" fill="#419B44"/>
<path id="Vector_111" d="M31.353 29.7869L12.2065 10.6301C11.6188 11.1277 11.0989 11.6479 10.6016 12.2359L29.7479 31.3926C30.3356 30.9177 30.8782 30.3749 31.353 29.7869Z" fill="#74787F"/>
<path id="Vector_112" d="M34.6767 11.9191L35.4904 8.91107L36.372 5.63159L33.0943 6.51366L30.0879 7.32788C31.8963 8.52659 33.456 10.0872 34.6767 11.9191Z" fill="#74787F"/>
<path id="Vector_113" d="M35.6934 13.6833C36.6428 15.6058 37.2306 17.7319 37.3661 19.9709L41.955 15.3796L35.6934 13.6833Z" fill="#74787F"/>
<path id="Vector_114" d="M39.5813 24.2229L37.3885 22.0291C37.2529 24.268 36.6652 26.3942 35.7158 28.3166L38.7222 27.5023L41.9999 26.6203L39.5813 24.2229Z" fill="#74787F"/>
<path id="Vector_115" d="M34.6767 30.0808C33.456 31.9128 31.8963 33.4734 30.0879 34.6721L33.0943 35.4863L36.372 36.3683L35.4904 33.0889L34.6767 30.0808Z" fill="#74787F"/>
<path id="Vector_116" d="M22.0176 37.3861L26.6065 41.9774L27.4881 38.6978L28.3018 35.6897C26.3803 36.6623 24.2555 37.2504 22.0176 37.3861Z" fill="#74787F"/>
<path id="Vector_117" d="M13.6758 35.7124L14.4895 38.7204L15.3711 41.9999L19.96 37.4087C17.7221 37.2504 15.5971 36.6623 13.6758 35.7124Z" fill="#74787F"/>
<path id="Vector_118" d="M7.30182 30.0808L6.48804 33.0889L5.60645 36.3683L8.88416 35.4863L11.8906 34.6721C10.0822 33.4734 8.52248 31.9128 7.30182 30.0808Z" fill="#74787F"/>
<path id="Vector_119" d="M4.61225 22.0291L0.0234375 26.6203L3.30115 27.5023L6.30762 28.3166C5.33561 26.3942 4.74787 24.268 4.61225 22.0291Z" fill="#74787F"/>
<path id="Vector_120" d="M6.28417 13.7059L3.27772 14.4976L0 15.3796L4.5888 19.9709C4.74704 17.7319 5.33477 15.6058 6.28417 13.7059Z" fill="#74787F"/>
<path id="Vector_121" d="M7.30182 11.9191C8.52248 10.0872 10.0822 8.52659 11.8906 7.32788L8.88416 6.51366L5.60645 5.63159L6.48804 8.91107L7.30182 11.9191Z" fill="#74787F"/>
<path id="Vector_122" d="M19.96 4.61386L15.3711 0.022583L14.4895 3.30206L13.6758 6.31014C15.5971 5.3376 17.7221 4.74956 19.96 4.61386Z" fill="#74787F"/>
<path id="Vector_123" d="M28.3006 6.28756L27.5094 3.27948L26.6278 0L22.0391 4.59128C24.2543 4.7496 26.3791 5.33764 28.3006 6.28756Z" fill="#74787F"/>
<path id="Vector_124" d="M22.9449 1.80933L21.0008 4.41029L19.0342 1.80933H22.9449Z" fill="#419B44"/>
<path id="Vector_125" d="M19.0342 40.1906L21.0008 37.5896L22.9449 40.1906H19.0342Z" fill="#419B44"/>
<path id="Vector_126" d="M13.1106 3.41516L12.7037 6.6268L9.69727 5.36025L13.1106 3.41516Z" fill="#419B44"/>
<path id="Vector_127" d="M28.8887 38.585L29.273 35.3733L32.2794 36.6399L28.8887 38.585Z" fill="#419B44"/>
<path id="Vector_128" d="M5.35711 9.70276L6.62299 12.7108L3.41309 13.1179L5.35711 9.70276Z" fill="#419B44"/>
<path id="Vector_129" d="M36.6204 32.2972L35.3545 29.2892L38.5643 28.9047L36.6204 32.2972Z" fill="#419B44"/>
<path id="Vector_130" d="M1.80859 19.0436L4.40816 21.0113L1.80859 22.9564V19.0436Z" fill="#419B44"/>
<path id="Vector_131" d="M40.169 22.9564L37.5693 21.0113L40.169 19.0436V22.9564Z" fill="#419B44"/>
<path id="Vector_132" d="M3.41309 28.9047L6.62299 29.2892L5.35711 32.2972L3.41309 28.9047Z" fill="#419B44"/>
<path id="Vector_133" d="M38.5643 13.1179L35.3545 12.7108L36.6204 9.70276L38.5643 13.1179Z" fill="#419B44"/>
<path id="Vector_134" d="M9.69727 36.6399L12.7037 35.3733L13.1106 38.585L9.69727 36.6399Z" fill="#419B44"/>
<path id="Vector_135" d="M32.2794 5.36025L29.273 6.6268L28.8887 3.41516L32.2794 5.36025Z" fill="#419B44"/>
<path id="Vector_136" d="M75.5735 11.6813V30.1875H70.4285V19.9763L66.9372 30.1875H62.6322L59.1147 19.8975V30.1875H53.9697V11.6813H60.191L64.8372 23.7038L69.3785 11.6813H75.5735ZM83.6472 11.6813V30.1875H78.5022V11.6813H83.6472ZM91.7222 26.25H97.471V30.1875H86.5772V11.6813H91.7222V26.25ZM104.616 26.25H110.365V30.1875H99.4715V11.6813H104.616V26.25Z" fill="#74787F"/>
<path id="Vector_137" d="M138.432 11.6813L133.89 30.1876H127.564L125.018 18.8476L122.419 30.1876H116.093L111.604 11.6813H117.169L119.322 24.3338L122.236 11.6813H127.879L130.714 24.2288L132.867 11.6813H138.432ZM149.488 30.3713C147.756 30.3713 146.162 29.9688 144.711 29.1638C143.258 28.3413 142.103 27.2125 141.246 25.7776C140.406 24.325 139.986 22.6889 139.986 20.8688C139.986 19.0488 140.406 17.4213 141.246 15.9863C142.103 14.5338 143.258 13.405 144.711 12.6001C146.162 11.7951 147.756 11.3926 149.488 11.3926C151.238 11.3926 152.83 11.7951 154.266 12.6001C155.717 13.405 156.864 14.5338 157.704 15.9863C158.544 17.4213 158.964 19.0488 158.964 20.8688C158.964 22.6889 158.544 24.325 157.704 25.7776C156.864 27.2125 155.717 28.3413 154.266 29.1638C152.813 29.9688 151.221 30.3713 149.488 30.3713ZM149.488 25.5938C150.801 25.5938 151.832 25.165 152.586 24.3076C153.355 23.4501 153.741 22.3038 153.741 20.8688C153.741 19.3988 153.355 18.2438 152.586 17.4038C151.832 16.5464 150.801 16.1176 149.488 16.1176C148.157 16.1176 147.117 16.5464 146.364 17.4038C145.611 18.2438 145.236 19.3988 145.236 20.8688C145.236 22.3214 145.611 23.4764 146.364 24.3338C147.117 25.1738 148.157 25.5938 149.488 25.5938ZM170.15 30.3713C168.417 30.3713 166.824 29.9688 165.372 29.1638C163.919 28.3413 162.764 27.2125 161.907 25.7776C161.067 24.325 160.647 22.6889 160.647 20.8688C160.647 19.0488 161.067 17.4213 161.907 15.9863C162.764 14.5338 163.919 13.405 165.372 12.6001C166.824 11.7951 168.417 11.3926 170.15 11.3926C171.899 11.3926 173.491 11.7951 174.927 12.6001C176.379 13.405 177.526 14.5338 178.366 15.9863C179.206 17.4213 179.626 19.0488 179.626 20.8688C179.626 22.6889 179.206 24.325 178.366 25.7776C177.526 27.2125 176.379 28.3413 174.927 29.1638C173.474 29.9688 171.882 30.3713 170.15 30.3713ZM170.15 25.5938C171.462 25.5938 172.494 25.165 173.247 24.3076C174.016 23.4501 174.402 22.3038 174.402 20.8688C174.402 19.3988 174.016 18.2438 173.247 17.4038C172.494 16.5464 171.462 16.1176 170.15 16.1176C168.819 16.1176 167.778 16.5464 167.026 17.4038C166.272 18.2438 165.897 19.3988 165.897 20.8688C165.897 22.3214 166.272 23.4764 167.026 24.3338C167.778 25.1738 168.819 25.5938 170.15 25.5938ZM189.262 11.6813C191.205 11.6813 192.902 12.0751 194.355 12.8626C195.825 13.6326 196.953 14.7175 197.741 16.1176C198.528 17.5176 198.922 19.1189 198.922 20.9213C198.922 22.7063 198.519 24.2988 197.715 25.6988C196.927 27.0989 195.798 28.2014 194.328 29.0063C192.876 29.7938 191.188 30.1876 189.262 30.1876H181.938V11.6813H189.262ZM188.868 25.6463C190.374 25.6463 191.555 25.2351 192.412 24.4126C193.269 23.59 193.698 22.4264 193.698 20.9213C193.698 19.3988 193.269 18.2264 192.412 17.4038C191.555 16.5638 190.374 16.1438 188.868 16.1438H187.083V25.6463H188.868Z" fill="#419B44"/>
</g>
</svg>
