<svg width="20" height="20" viewBox="0 0 20 20" fill="none" xmlns="http://www.w3.org/2000/svg">
<g clip-path="url(#clip0_94_19291)">
<path d="M2.5013 3H17.5013C17.7223 3 17.9343 3.0878 18.0906 3.24408C18.2468 3.40036 18.3346 3.61232 18.3346 3.83333V17.1667C18.3346 17.3877 18.2468 17.5996 18.0906 17.7559C17.9343 17.9122 17.7223 18 17.5013 18H2.5013C2.28029 18 2.06833 17.9122 1.91205 17.7559C1.75577 17.5996 1.66797 17.3877 1.66797 17.1667V3.83333C1.66797 3.61232 1.75577 3.40036 1.91205 3.24408C2.06833 3.0878 2.28029 3 2.5013 3ZM16.668 6.53167L10.0613 12.4483L3.33464 6.51333V16.3333H16.668V6.53167ZM3.76047 4.66667L10.0521 10.2183L16.253 4.66667H3.76047Z" fill="#1F1C25"/>
</g>
<defs>
<clipPath id="clip0_94_19291">
<rect width="20" height="20" fill="white"/>
</clipPath>
</defs>
</svg>
