<svg width="90" height="90" viewBox="0 0 90 90" fill="none" xmlns="http://www.w3.org/2000/svg">
<g clip-path="url(#clip0_29_7509)">
<path fill-rule="evenodd" clip-rule="evenodd" d="M36.6982 71.8647C35.8029 71.9559 34.9034 72.0011 34.0034 72C30.4234 72.054 26.8685 71.3956 23.5453 70.063C20.2222 68.7304 17.1972 66.7502 14.6464 64.2376C12.0957 61.7251 10.0701 58.7304 8.68743 55.4277C7.3048 52.1251 6.59277 48.5804 6.59277 45C6.59277 41.4196 7.3048 37.875 8.68743 34.5723C10.0701 31.2697 12.0957 28.2749 14.6464 25.7624C17.1972 23.2498 20.2222 21.2697 23.5453 19.937C26.8685 18.6044 30.4234 17.946 34.0034 18C34.9017 18 35.8061 18.0492 36.6982 18.1354V26.2381C35.9389 26.1448 35.1746 26.0976 34.4095 26.0966H34.0034C28.9908 26.0966 24.1834 28.0879 20.6389 31.6324C17.0944 35.1769 15.1031 39.9843 15.1031 44.9969C15.1031 50.0096 17.0944 54.817 20.6389 58.3615C24.1834 61.906 28.9908 63.8972 34.0034 63.8972H34.4095C35.1746 63.8963 35.9389 63.849 36.6982 63.7557V71.8647ZM82.6016 71.8647C81.7042 71.9559 80.8027 72.0011 79.9007 72C72.8104 71.893 66.0468 69.0013 61.0706 63.9494C56.0945 58.8976 53.3052 52.0911 53.3052 45C53.3052 37.9089 56.0945 31.1024 61.0706 26.0506C66.0468 20.9988 72.8104 18.107 79.9007 18C80.7989 18 81.7095 18.0492 82.6016 18.1354V26.2381C81.8402 26.1447 81.0738 26.0974 80.3067 26.0966H79.9007C75.5929 26.0973 71.4146 27.5695 68.0578 30.2695C64.7011 32.9694 62.3674 36.735 61.4433 40.9425H77.1997V49.0514H61.4372C62.3611 53.2595 64.6945 57.0259 68.0511 59.7268C71.4078 62.4278 75.5862 63.9013 79.8945 63.9034H80.3006C81.0677 63.9026 81.834 63.8554 82.5954 63.7619V71.8647H82.6016Z" fill="#464B57"/>
</g>
<defs>
<clipPath id="clip0_29_7509">
<rect width="75.6012" height="54" fill="white" transform="translate(7 18)"/>
</clipPath>
</defs>
</svg>
