<svg width="74" height="53" viewBox="0 0 74 53" fill="none" xmlns="http://www.w3.org/2000/svg">
<g id="ce-certification-icon 1" clip-path="url(#clip0_29_7510)">
<path id="Vector" fill-rule="evenodd" clip-rule="evenodd" d="M29.0689 52.7238C28.1925 52.8131 27.3121 52.8574 26.4312 52.8563C22.927 52.9092 19.4473 52.2647 16.1946 50.9603C12.9418 49.6559 9.9809 47.7176 7.48417 45.2583C4.98743 42.799 3.00472 39.8677 1.65137 36.635C0.298023 33.4023 -0.398926 29.9327 -0.398926 26.4282C-0.398926 22.9236 0.298023 19.454 1.65137 16.2213C3.00472 12.9886 4.98743 10.0573 7.48417 7.59798C9.9809 5.13866 12.9418 3.20041 16.1946 1.89601C19.4473 0.591615 22.927 -0.052885 26.4312 1.29433e-05C27.3104 1.29433e-05 28.1957 0.04819 29.0689 0.1325V8.06365C28.3256 7.97235 27.5775 7.92609 26.8286 7.92514H26.4312C21.5247 7.92514 16.8191 9.87425 13.3497 13.3437C9.88028 16.8131 7.93118 21.5186 7.93118 26.4251C7.93118 31.3316 9.88028 36.0372 13.3497 39.5066C16.8191 42.976 21.5247 44.9251 26.4312 44.9251H26.8286C27.5775 44.9242 28.3256 44.8779 29.0689 44.7866V52.7238ZM74 52.7238C73.1216 52.8132 72.2392 52.8574 71.3563 52.8563C64.4162 52.7515 57.7958 49.9211 52.9251 44.9762C48.0543 40.0314 45.3241 33.369 45.3241 26.4282C45.3241 19.4873 48.0543 12.8249 52.9251 7.88009C57.7958 2.93525 64.4162 0.104779 71.3563 1.29433e-05C72.2355 1.29433e-05 73.1268 0.04819 74 0.1325V8.06365C73.2548 7.97216 72.5046 7.92591 71.7538 7.92514H71.3563C67.1397 7.92581 63.0499 9.36686 59.7643 12.0096C56.4787 14.6523 54.1944 18.3382 53.2899 22.4566H68.7126V30.3937H53.2839C54.1882 34.5127 56.4723 38.1993 59.7578 40.843C63.0433 43.4868 67.1332 44.9291 71.3503 44.9312H71.7477C72.4986 44.9304 73.2487 44.8841 73.994 44.7927V52.7238H74Z" fill="#464B57"/>
</g>
<defs>
<clipPath id="clip0_29_7510">
<rect width="74" height="52.8563" fill="white"/>
</clipPath>
</defs>
</svg>
