<svg width="90" height="90" viewBox="0 0 90 90" fill="none" xmlns="http://www.w3.org/2000/svg">
<path d="M35.6956 18.2027C35.6396 18.3426 35.4717 18.9022 35.3877 19.5178C35.0799 21.1129 33.1491 22.8478 28.1122 25.9819C20.0812 30.9628 18.1504 32.9775 18.1504 36.3914C18.1504 39.7494 21.5643 44.9821 24.2506 45.6817C25.0062 45.8776 25.0062 45.9056 25.202 49.0956C25.7337 57.8542 30.127 65.0177 37.4864 69.0473C46.5249 74.0002 57.8019 72.629 65.2173 65.6334C70.2542 60.8763 72.7447 55.1678 72.8006 48.368C72.8566 36.8391 65.3852 27.4649 53.9963 24.8346C51.7297 24.3029 45.7414 24.2469 45.1257 24.7506C44.2303 25.5061 44.9299 25.702 48.4277 25.702C50.3865 25.702 52.0654 25.786 52.1774 25.9259C52.2893 26.0378 52.0375 26.4855 51.5897 26.9612L50.8062 27.7727L51.2819 29.6476C51.7576 31.5224 51.7576 31.6064 51.114 33.873C50.4984 36.1116 50.3865 36.2795 48.7355 37.7626C47.1405 39.1617 46.9726 39.4136 46.9726 40.4209V41.5123H45.7134C44.5941 41.5123 44.3982 41.5962 44.1743 42.2398C44.0064 42.6316 43.8945 43.527 43.8945 44.2546C43.8945 45.4298 44.0064 45.6537 44.8459 46.3253C45.3776 46.773 45.8813 47.1088 45.9652 47.1088C46.0492 47.1088 46.8607 46.6611 47.7561 46.1294C48.8754 45.4858 49.6869 44.7303 50.2466 43.8908C50.6663 43.1912 51.17 42.6316 51.3659 42.6316C51.5338 42.6316 51.8696 42.5476 52.0934 42.4637C52.3733 42.3797 52.737 42.6875 53.1288 43.3871C53.9963 44.8422 55.3954 46.2693 55.8991 46.2693C56.1509 46.2693 56.6266 45.7656 56.9904 45.122L57.662 43.9747L56.9344 42.8834C56.2349 41.8481 56.2349 41.7921 56.7665 41.7921C57.1303 41.7921 57.4941 42.1559 57.8579 42.8554C58.4735 44.0587 60.3483 45.8776 61.4117 46.2693C61.8034 46.4372 62.475 46.5492 62.9227 46.5492C63.4544 46.5492 63.8742 46.773 64.182 47.1648C64.5737 47.7804 64.5737 47.8364 63.9021 48.3121C63.5104 48.5919 63.2026 48.9277 63.2026 49.0396C63.2026 49.1515 64.2659 50.6626 65.5811 52.3975C67.6238 55.0559 67.9596 55.6995 67.9596 56.5949C67.9596 57.6583 68.5753 58.3299 68.939 57.7422C69.051 57.5743 69.2468 57.4624 69.3867 57.4624C69.5267 57.4624 69.3867 57.9661 69.0789 58.5817C68.6032 59.5331 68.4353 59.673 67.9876 59.4212C67.6518 59.2533 67.4 58.6937 67.288 57.8822C67.1481 56.9587 66.5045 55.7555 64.8815 53.321C63.6783 51.5301 62.503 49.8231 62.2791 49.5713C62.0553 49.2915 60.964 48.9277 59.3969 48.6199C58.0258 48.368 55.955 47.7244 54.8078 47.2207C51.7017 45.8496 51.3939 45.8216 48.5116 46.857C46.4129 47.6125 45.7134 48.0322 44.3702 49.3194C42.8871 50.7466 42.6912 51.1103 42.0756 53.209L41.404 55.5316L43.5307 58.7496C44.8739 60.7644 45.8253 61.9396 46.1331 61.9396C46.4129 61.9396 47.6722 61.7438 48.9594 61.4919L51.2539 61.0722L52.1774 61.9956C52.849 62.6952 53.2967 63.6466 53.9403 65.7733C54.416 67.3123 54.8078 68.8514 54.8078 69.1872C54.8078 69.9987 54.1082 70.2785 51.3379 70.5863C40.3127 71.8455 29.7073 64.3741 27.1049 53.5448C26.3493 50.3268 26.3493 45.7656 27.1049 42.7435C27.8324 39.8333 29.8192 35.9157 31.722 33.6771C33.373 31.7463 33.4849 31.4945 32.8133 31.2426C31.3862 30.7109 26.853 38.0424 25.8177 42.6036C25.5658 43.6949 25.258 44.5904 25.0901 44.5904C24.5025 44.5904 23.2153 43.7229 22.2639 42.6596C20.9207 41.1485 19.8294 38.9658 19.6335 37.3149C19.1858 33.5092 19.7734 32.8936 31.0224 25.6181C33.5969 23.9671 35.6676 22.1202 36.2832 20.945C36.535 20.4693 36.591 20.4972 36.9828 21.4487C38.9695 26.1498 40.1448 35.524 39.1934 38.8539C38.6897 40.6448 37.2906 42.5756 35.8635 43.4711C34.3244 44.4504 33.2051 44.8142 30.9665 45.0661C29.6233 45.206 29.3435 45.3179 29.3435 45.7377C29.3435 46.1854 29.5673 46.2693 30.8266 46.2693C35.4997 46.2693 39.3053 43.3871 40.4246 38.9938C41.376 35.2162 40.3967 27.1012 38.27 21.2528C37.8222 20.0215 37.2626 18.8183 37.0107 18.5105C36.5071 17.9788 35.8914 17.8389 35.6956 18.2027ZM57.5221 27.297C64.0141 29.9554 68.8551 35.412 70.8139 42.2678C71.3176 44.0307 71.4575 45.15 71.4575 48.0882C71.4575 52.0897 71.0377 54.4403 70.1143 55.4477C69.3588 56.2592 69.2468 56.2312 68.8551 55.1398C68.6592 54.6641 67.6518 53.1251 66.5885 51.726C64.7416 49.3474 64.6577 49.2075 65.1893 48.8437C65.8329 48.396 65.8609 47.9763 65.2453 46.6891C64.8815 45.9056 64.5737 45.6817 63.7902 45.5418C63.2306 45.4578 62.447 45.3179 62.0273 45.2619C61.2158 45.0941 59.1731 43.0233 58.3895 41.5682C57.9418 40.7287 57.8019 40.6728 56.4867 40.6728C55.7312 40.6728 55.0036 40.6728 54.8917 40.6448C54.332 40.6168 54.5839 41.6242 55.3674 42.7155C55.9271 43.499 56.1509 44.1147 56.039 44.3945C55.7871 45.0381 55.3114 44.6183 54.0802 42.7155C53.1008 41.1485 53.0448 41.1485 51.3939 41.4003C50.5264 41.5402 50.1906 41.8201 49.491 42.9394C47.7561 45.5977 45.0138 46.4092 45.0138 44.2266C45.0138 42.9114 45.2936 42.6875 46.8327 42.5756L48.2318 42.4917L48.3158 41.0925C48.3717 39.7773 48.4837 39.6094 49.9108 38.2943C51.3659 36.9791 51.5058 36.7272 52.2054 34.2927C52.9049 31.7743 52.9329 31.6064 52.5412 29.9554L52.1214 28.2205L52.9609 27.1571C53.9403 25.9259 54.2201 25.9259 57.5221 27.297ZM53.9963 48.368C55.1435 48.8997 56.8785 49.4594 57.8859 49.6273C61.2997 50.1589 61.1878 50.075 63.5384 53.5728C65.1054 55.8674 65.777 57.1826 66.0008 58.2179C66.2247 59.2253 66.5325 59.8689 67.0362 60.2607L67.7638 60.8203L66.5605 62.3874C64.8535 64.598 62.0553 66.8086 59.1731 68.2637C57.8299 68.9353 56.5427 69.495 56.3188 69.495C56.067 69.495 55.9271 69.1872 55.9271 68.7394C55.9271 68.3197 55.5353 66.7247 55.0596 65.1577C54.388 62.947 53.9403 62.0796 53.0169 61.0162L51.8416 59.673L49.1273 60.1488C47.6442 60.4006 46.357 60.5685 46.301 60.5125C46.273 60.4566 45.4335 59.2533 44.5101 57.8542L42.8032 55.2798L43.3348 53.3769C43.8105 51.698 44.0624 51.2782 45.2936 50.1869C46.7487 48.8997 49.8268 47.4726 51.198 47.4166C51.6177 47.3886 52.8769 47.8364 53.9963 48.368Z" fill="#4E6C2B"/>
<path d="M46.329 31.3825C45.3217 31.7743 45.2657 31.8582 45.4336 32.7537C45.5735 33.5932 45.5175 33.7331 44.762 34.1808C44.2863 34.4326 43.8945 34.8244 43.8945 35.0483C43.8945 35.7478 47.3084 38.0144 47.8961 37.6786C49.4911 36.8112 49.9388 35.2721 49.0154 33.9569C48.7355 33.5652 48.3997 32.7537 48.2319 32.166C47.8961 30.8509 47.7282 30.7949 46.329 31.3825ZM47.2525 33.0895C47.2525 33.3693 47.5043 33.929 47.8121 34.3207C48.4837 35.1602 48.5117 35.7199 47.98 36.1676C47.6722 36.4474 47.3924 36.4194 46.7208 36.0836C45.5455 35.468 45.4616 35.1602 46.2731 34.6285C46.8607 34.2368 46.9726 34.0129 46.8327 33.3693C46.7208 32.8656 46.7768 32.5578 46.9446 32.5578C47.1125 32.5578 47.2525 32.7817 47.2525 33.0895Z" fill="#4E6C2B"/>
</svg>
