<svg width="90" height="90" viewBox="0 0 90 90" fill="none" xmlns="http://www.w3.org/2000/svg">
<g id="Frame 3506">
<g id="Group">
<path id="Vector" d="M32.4206 9.18713C32.3459 9.3739 32.1218 10.121 32.0098 10.9427C31.5989 13.0719 29.0215 15.3878 22.2978 19.5714C11.5774 26.2203 9 28.9098 9 33.4669C9 37.9493 13.5571 44.9344 17.1431 45.8683C18.1516 46.1298 18.1516 46.1671 18.4131 50.4254C19.1228 62.1171 24.9873 71.6795 34.8113 77.0585C46.8765 83.67 61.9299 81.8397 71.8286 72.5013C78.5522 66.1512 81.8767 58.5311 81.9514 49.4542C82.0261 34.0646 72.0527 21.5511 56.8498 18.0399C53.8242 17.3302 45.8306 17.2555 45.0088 17.9279C43.8135 18.9364 44.7473 19.1979 49.4165 19.1979C52.0312 19.1979 54.2724 19.3099 54.4219 19.4967C54.5713 19.6461 54.2351 20.2438 53.6374 20.8788L52.5915 21.962L53.2266 24.4647C53.8616 26.9674 53.8616 27.0795 53.0024 30.1051C52.1807 33.0934 52.0312 33.3175 49.8274 35.2972C47.6982 37.1649 47.4741 37.5011 47.4741 38.8458V40.3026H45.7932C44.2991 40.3026 44.0376 40.4147 43.7388 41.2738C43.5146 41.7967 43.3652 42.9921 43.3652 43.9632C43.3652 45.5321 43.5146 45.8309 44.6352 46.7274C45.345 47.3251 46.0173 47.7733 46.1294 47.7733C46.2414 47.7733 47.3247 47.1756 48.52 46.4659C50.0141 45.6068 51.0974 44.5983 51.8445 43.4777C52.4048 42.5438 53.0771 41.7967 53.3386 41.7967C53.5627 41.7967 54.011 41.6847 54.3098 41.5726C54.6833 41.4606 55.1689 41.8715 55.6919 42.8053C56.8498 44.7477 58.7175 46.6527 59.3899 46.6527C59.7261 46.6527 60.3611 45.9803 60.8467 45.1212L61.7431 43.5897L60.772 42.1329C59.8381 40.7508 59.8381 40.6761 60.5478 40.6761C61.0334 40.6761 61.519 41.1617 62.0046 42.0956C62.8264 43.7018 65.3291 46.1298 66.7485 46.6527C67.2715 46.8768 68.1679 47.0262 68.7656 47.0262C69.4753 47.0262 70.0356 47.3251 70.4465 47.848C70.9695 48.6698 70.9695 48.7445 70.073 49.3795C69.55 49.753 69.1391 50.2013 69.1391 50.3507C69.1391 50.5001 70.5586 52.5172 72.3142 54.8331C75.041 58.3817 75.4892 59.2408 75.4892 60.4361C75.4892 61.8556 76.311 62.7521 76.7966 61.9676C76.946 61.7435 77.2075 61.5941 77.3943 61.5941C77.581 61.5941 77.3943 62.2665 76.9834 63.0882C76.3484 64.3583 76.1242 64.545 75.5266 64.2088C75.0783 63.9847 74.7422 63.2377 74.5928 62.1544C74.406 60.9217 73.5469 59.3155 71.3804 56.0658C69.7742 53.6752 68.2053 51.3966 67.9065 51.0604C67.6076 50.6869 66.1509 50.2013 64.0591 49.7904C62.2287 49.4542 59.4646 48.5951 57.9331 47.9227C53.7868 46.0924 53.376 46.055 49.5286 47.4371C46.727 48.4457 45.7932 49.006 44.0002 50.7242C42.0205 52.6293 41.759 53.1149 40.9372 55.9164L40.0408 59.0167L42.8796 63.3124C44.6726 66.0018 45.9426 67.5707 46.3535 67.5707C46.727 67.5707 48.4079 67.3092 50.1262 66.973L53.1892 66.4127L54.4219 67.6454C55.3183 68.5792 55.916 69.8492 56.7751 72.6881C57.4101 74.7425 57.9331 76.797 57.9331 77.2452C57.9331 78.3285 56.9993 78.702 53.3013 79.1129C38.584 80.7938 24.427 70.8204 20.9531 56.3646C19.9446 52.069 19.9446 45.9803 20.9531 41.9462C21.9243 38.0614 24.5764 32.8319 27.1164 29.8436C29.3203 27.2662 29.4697 26.93 28.5732 26.5939C26.6682 25.8842 20.6169 35.6708 19.2349 41.7594C18.8987 43.2162 18.4878 44.4115 18.2637 44.4115C17.4792 44.4115 15.761 43.2535 14.491 41.8341C12.698 39.817 11.2412 36.9034 10.9797 34.6996C10.3821 29.6195 11.1665 28.7977 26.1826 19.0858C29.6191 16.882 32.3833 14.4166 33.2051 12.8478C33.5413 12.2128 33.616 12.2501 34.1389 13.5201C36.791 19.7955 38.3599 32.309 37.0898 36.754C36.4175 39.1446 34.5498 41.722 32.6448 42.9174C30.5903 44.2247 29.0962 44.7103 26.1079 45.0465C24.3149 45.2333 23.9414 45.3827 23.9414 45.943C23.9414 46.5406 24.2402 46.6527 25.9211 46.6527C32.1592 46.6527 37.2393 42.8053 38.7334 36.9408C40.0034 31.8981 38.696 21.0655 35.8572 13.2587C35.2595 11.6151 34.5124 10.0089 34.1763 9.59802C33.5039 8.88831 32.6821 8.70154 32.4206 9.18713ZM61.5564 21.327C70.2224 24.8756 76.6845 32.1595 79.2993 41.3111C79.9717 43.6644 80.1584 45.1586 80.1584 49.0807C80.1584 54.4222 79.5981 57.5599 78.3655 58.9046C77.3569 59.9879 77.2075 59.9505 76.6845 58.4938C76.4231 57.8588 75.0783 55.8043 73.6589 53.9366C71.1936 50.7616 71.0815 50.5748 71.7912 50.0892C72.6504 49.4916 72.6877 48.9313 71.8659 47.213C71.3804 46.1671 70.9695 45.8683 69.9236 45.6815C69.1765 45.5695 68.1306 45.3827 67.5703 45.308C66.487 45.0839 63.7602 42.3197 62.7143 40.3773C62.1167 39.2567 61.9299 39.182 60.1743 39.182C59.1658 39.182 58.1946 39.182 58.0452 39.1446C57.2981 39.1073 57.6343 40.452 58.6802 41.9088C59.4272 42.9547 59.7261 43.7765 59.5766 44.15C59.2405 45.0091 58.6055 44.4488 56.9619 41.9088C55.6545 39.817 55.5798 39.817 53.376 40.1532C52.218 40.34 51.7698 40.7135 50.8359 42.2076C48.52 45.7562 44.8594 46.8395 44.8594 43.9259C44.8594 42.1703 45.2329 41.8715 47.2873 41.722L49.155 41.61L49.2671 39.7423C49.3418 37.9867 49.4912 37.7626 51.3962 36.007C53.3386 34.2513 53.5254 33.9152 54.4592 30.6654C55.3931 27.3036 55.4304 27.0795 54.9075 24.8756L54.3472 22.5597L55.4678 21.1403C56.7751 19.4967 57.1487 19.4967 61.5564 21.327ZM56.8498 49.4542C58.3813 50.1639 60.6973 50.911 62.042 51.1351C66.5991 51.8448 66.4497 51.7328 69.5874 56.402C71.6792 59.465 72.5757 61.2206 72.8745 62.6026C73.1733 63.9474 73.5842 64.8065 74.2566 65.3295L75.2278 66.0765L73.6216 68.1683C71.343 71.1192 67.6076 74.0702 63.7602 76.0126C61.9673 76.909 60.249 77.6561 59.9502 77.6561C59.614 77.6561 59.4272 77.2452 59.4272 76.6476C59.4272 76.0873 58.9043 73.9581 58.2693 71.8663C57.3728 68.9154 56.7751 67.7574 55.5425 66.338L53.9736 64.545L50.3503 65.18C48.3706 65.5162 46.6523 65.7403 46.5776 65.6656C46.5403 65.5909 45.4197 63.9847 44.187 62.1171L41.9084 58.6805L42.6182 56.1405C43.2532 53.8993 43.5893 53.339 45.2329 51.8822C47.1753 50.1639 51.2842 48.2589 53.1145 48.1842C53.6748 48.1468 55.3557 48.7445 56.8498 49.4542Z" fill="#4E6C2B"/>
<path id="Vector_2" d="M46.615 26.7807C45.2703 27.3036 45.1956 27.4157 45.4197 28.611C45.6064 29.7316 45.5317 29.9183 44.5232 30.516C43.8882 30.8522 43.3652 31.3751 43.3652 31.674C43.3652 32.6078 47.9224 35.6334 48.7068 35.1852C50.8359 34.0272 51.4336 31.9728 50.2009 30.2172C49.8274 29.6942 49.3791 28.611 49.155 27.8266C48.7068 26.0709 48.4827 25.9962 46.615 26.7807ZM47.8477 29.0592C47.8477 29.4328 48.1838 30.1798 48.5947 30.7028C49.4912 31.8234 49.5286 32.5704 48.8188 33.1681C48.408 33.5416 48.0344 33.5043 47.1379 33.056C45.5691 32.2343 45.457 31.8234 46.5403 31.1137C47.3247 30.5907 47.4741 30.2919 47.2874 29.4328C47.1379 28.7604 47.2126 28.3495 47.4368 28.3495C47.6609 28.3495 47.8477 28.6483 47.8477 29.0592Z" fill="#4E6C2B"/>
</g>
</g>
</svg>
