<svg width="60" height="72" viewBox="0 0 60 72" fill="none" xmlns="http://www.w3.org/2000/svg">
<g id="fsc-3 1" clip-path="url(#clip0_29_7521)">
<path id="Vector" d="M34.9769 0.264603C20.5694 0.264603 15.4853 22.6973 10.7491 40.7426C9.03586 39.0074 3.76377 33.7378 3.7584 33.7464C2.69817 32.6938 1.48035 33.0361 0.734257 33.7655C-0.0164944 34.5233 -0.126098 35.9129 0.734257 36.756C0.777597 36.7934 7.87786 43.8887 10.3318 46.3482C11.0087 47.0084 11.9884 47.3972 12.9673 46.8241C13.9817 46.1984 14.1206 45.0929 14.1482 45.0929C22.5601 7.32096 30.0777 4.50432 34.9572 4.50432C39.062 4.50432 43.7925 7.54236 43.7925 13.6199C49.9139 13.6199 53.7504 21.6806 48.8239 26.6425C52.9083 28.6229 54.73 31.0583 54.73 34.1399C54.73 37.2247 52.1525 40.374 48.3901 40.3657C44.6593 40.3657 42.7635 37.9631 39.8568 37.9526C38.5387 37.9526 37.7392 39.02 37.7392 40.0727V47.6986H32.2511V40.1011C32.2357 38.9106 31.3614 37.9742 30.2722 37.9742C30.2546 37.9742 29.8026 37.9876 29.8094 38.003L22.4591 38.9106C21.5726 39.0449 20.7538 40.0097 20.7538 41.0058C20.7538 42.1736 21.7087 43.1435 23.0111 43.1273C23.1769 43.1273 23.3997 43.1273 23.3779 43.1082C23.3646 43.1082 28.0307 42.5142 28.0307 42.5142V50.0411C28.0307 50.9933 29.1084 51.9275 30.077 51.9275H39.8414C40.9768 51.9275 41.9636 50.945 41.9636 49.792V42.9181C44.0067 44.167 46.8489 44.6504 48.3067 44.6504C53.7844 44.6504 59.0088 40.3366 58.9934 34.0078C58.972 28.2712 54.5903 25.4059 54.5903 25.4059C57.1621 18.5436 53.0025 11.9185 47.6158 10.076C45.6737 2.99772 39.6401 0.264603 34.9769 0.264603Z" fill="#4E6C2B"/>
<path id="Vector_2" d="M34.9769 0.264603C20.5694 0.264603 15.4853 22.6973 10.7491 40.7426C9.03587 39.0074 3.76377 33.7378 3.7584 33.7464C2.69817 32.6938 1.48035 33.0361 0.734257 33.7655C-0.0164945 34.5233 -0.126098 35.9129 0.734257 36.756C0.777597 36.7934 7.87786 43.8887 10.3318 46.3482C11.0087 47.0084 11.9884 47.3972 12.9673 46.8241C13.9817 46.1984 14.1206 45.0929 14.1482 45.0929C22.5601 7.32096 30.0777 4.50432 34.9572 4.50432C39.062 4.50432 43.7925 7.54236 43.7925 13.6199C49.9139 13.6199 53.7504 21.6806 48.8239 26.6425C52.9083 28.6229 54.73 31.0583 54.73 34.1399C54.73 37.2247 52.1525 40.374 48.3902 40.3657C44.6593 40.3657 42.7635 37.9631 39.8568 37.9526C38.5387 37.9526 37.7392 39.02 37.7392 40.0727V47.6986H32.2511V40.1011C32.2357 38.9106 31.3614 37.9742 30.2722 37.9742C30.2546 37.9742 29.8026 37.9876 29.8094 38.003L22.4591 38.9106C21.5726 39.0449 20.7538 40.0097 20.7538 41.0058C20.7538 42.1736 21.7087 43.1435 23.0111 43.1273C23.1769 43.1273 23.3997 43.1273 23.3779 43.1082C23.3646 43.1082 28.0307 42.5142 28.0307 42.5142V50.0411C28.0307 50.9933 29.1084 51.9275 30.077 51.9275H39.8414C40.9768 51.9275 41.9636 50.945 41.9636 49.792V42.9181C44.0067 44.167 46.8489 44.6504 48.3067 44.6504C53.7844 44.6504 59.0089 40.3366 58.9934 34.0078C58.972 28.2712 54.5903 25.4059 54.5903 25.4059C57.1621 18.5436 53.0025 11.9185 47.6158 10.076C45.6737 2.99772 39.6401 0.264603 34.9769 0.264603ZM28.8273 60.3212C28.8273 62.0946 30.8019 63.1645 34.0557 64.715C36.6364 65.9243 38.1207 67.2062 38.1207 68.2369C38.1207 69.9026 36.3341 70.4927 34.6588 70.4927C32.0674 70.4927 30.5376 69.4577 29.6891 67.1346L29.6149 66.9384H29.4057C28.9505 66.9384 28.5876 66.96 28.3856 67.2062C28.2055 67.4446 28.2563 67.7567 28.3301 68.0605C28.3244 68.0533 28.9025 70.4426 28.9025 70.4426C29.0569 71.0233 29.2657 71.1176 30.1916 71.3005C30.5974 71.3707 32.6928 71.735 34.4679 71.735C39.4191 71.735 41.6291 69.7198 41.6291 67.7196C41.6291 66.2634 40.1903 64.872 37.0863 63.3179L35.6761 62.6364C33.5524 61.6226 32.2658 61.02 32.2658 59.9504C32.2658 58.9147 33.5979 58.194 35.4981 58.194C37.9799 58.194 38.6415 59.5832 38.9456 60.7928L38.999 61.02H39.2339C39.7859 61.02 40.1348 60.9743 40.3386 60.7514C40.4575 60.6247 40.5058 60.4498 40.4772 60.2453L40.2838 58.1818C40.2293 57.5172 39.7257 57.4222 39.0262 57.2796C38.1938 57.1313 37.1987 56.9498 35.6954 56.9498C31.3944 56.9495 28.8273 58.2124 28.8273 60.3212ZM43.0876 64.4983C43.0876 68.0908 46.197 71.735 52.1525 71.735C55.153 71.735 56.839 71.0453 58.098 70.3753L58.4368 70.196L57.8881 69.5801L57.9182 69.611C57.7853 69.4274 57.6818 69.3907 57.4798 69.3907L57.1903 69.4908C56.739 69.7003 55.3622 70.34 52.8635 70.34C49.7838 70.34 46.4706 68.3284 46.4706 63.8978C46.4706 59.6833 50.0672 58.194 53.1321 58.194C55.3414 58.194 56.5159 58.9828 56.7347 60.6175L56.7595 60.8843H57.0342C57.2967 60.8843 57.9952 60.8843 57.9952 60.3598V57.9042C57.9952 57.2983 57.3028 57.2159 57.0145 57.1723L56.7262 57.1309C56.0198 57.0388 55.3425 56.9495 53.5501 56.9495C47.4861 56.9495 43.0876 60.125 43.0876 64.4983ZM20.6571 57.127L15.2951 57.1705L11.7222 57.1115L11.1789 57.0989C10.8605 57.0989 10.6316 57.3286 10.6316 57.6605C10.6316 57.8135 10.6316 58.2966 11.2233 58.2966C13.3828 58.2966 13.4623 58.4705 13.482 59.3006L13.5028 59.823L13.5364 62.0363V66.7991C13.5364 67.5868 13.5081 68.8432 13.4569 69.8551C13.4426 70.1478 13.4279 70.4232 11.5213 70.4232C10.9804 70.4232 10.6609 70.5326 10.6609 71.0572C10.6609 71.2141 10.6609 71.6184 11.1792 71.6184H11.2989C11.5267 71.6072 12.1309 71.5792 15.1149 71.5792C18.2935 71.5792 18.931 71.6123 19.1474 71.6184H19.2591C19.6764 71.6184 20.0392 71.5792 20.0392 71.0572C20.0392 70.4722 19.5571 70.4232 18.7509 70.4232C16.8357 70.4232 16.8203 70.1478 16.8063 69.8609C16.7608 68.9314 16.7218 67.6757 16.7218 66.798V65.079H18.3286C20.7868 65.079 21.0594 65.1492 21.4114 67.0464C21.5125 67.4597 21.8413 67.5119 22.1153 67.5119C22.6934 67.5119 22.7564 67.1954 22.7564 67.0547L22.7077 66.3419C22.6525 65.8095 22.6256 65.2745 22.6271 64.7392V61.8203C22.6271 61.3829 22.1013 61.3829 21.8209 61.3829C21.3574 61.3829 21.2495 61.6777 20.9551 63.058C20.8194 63.5814 19.8046 63.8856 18.171 63.8856H16.7218V59.5991C16.7218 58.4312 16.9274 58.4219 17.1835 58.4186C18.124 58.3751 20.4021 58.2962 21.0869 58.2962C21.7385 58.2962 22.3381 58.446 22.7206 58.6998C23.9395 59.4551 24.562 59.9699 24.9399 60.2806C25.3096 60.5772 25.5166 60.7525 25.8167 60.7525C25.9951 60.7525 26.512 60.7525 26.512 60.3032C26.512 60.1934 26.4629 60.093 26.2967 59.7218C26.1001 59.2808 25.7655 58.5587 25.3418 57.4474C25.2189 57.0938 24.8171 57.0938 24.0652 57.0938L20.6571 57.127ZM54.6562 4.60584H55.4134C55.7598 4.60584 56.0001 4.54896 56.1394 4.45068C56.273 4.35024 56.3415 4.20732 56.3415 4.01976C56.3415 3.84264 56.273 3.69972 56.147 3.5982C56.0191 3.49992 55.7594 3.44412 55.3668 3.44412H54.6555L54.6562 4.60584ZM57.2727 6.77412H56.5109C56.0345 5.904 55.7168 5.41584 55.576 5.30136C55.4277 5.19192 55.2479 5.13864 55.0255 5.13864H54.6569V6.77412H54.0344V2.92428H55.3686C55.7659 2.92428 56.066 2.95308 56.2841 3.015C56.4983 3.06504 56.6731 3.18528 56.8067 3.37104C56.9411 3.54996 57.0105 3.75516 57.0105 3.96576C57.0105 4.22892 56.9153 4.46472 56.7215 4.68108C56.5334 4.89744 56.2641 5.01768 55.9084 5.04576V5.05656C56.1344 5.11344 56.4375 5.43564 56.8003 6.02532L57.2727 6.77412ZM55.5972 7.78428C56.4178 7.78428 57.1162 7.49628 57.6997 6.90876C58.2835 6.32016 58.5815 5.61816 58.5866 4.78836C58.5866 3.96612 58.2932 3.26196 57.709 2.68092C57.1223 2.09988 56.4181 1.80252 55.5972 1.80252C54.7758 1.80252 54.0688 2.09484 53.4921 2.67588C52.909 3.26196 52.6199 3.96612 52.6156 4.78836C52.6156 5.61276 52.909 6.32016 53.4871 6.90336C54.0699 7.48908 54.7708 7.78428 55.5972 7.78428ZM55.6118 1.21032C56.585 1.21032 57.4217 1.55844 58.1227 2.25396C58.8298 2.95812 59.179 3.8034 59.179 4.788C59.179 5.77512 58.8287 6.62004 58.1313 7.32096C57.4321 8.01972 56.5922 8.37324 55.6118 8.37324C54.6229 8.37324 53.7751 8.02836 53.0795 7.32996C52.3724 6.6258 52.0236 5.78016 52.0236 4.788C52.0236 3.8034 52.3735 2.96352 53.0795 2.25936C53.7751 1.55844 54.6229 1.21032 55.6118 1.21032Z" fill="#4E6C2B"/>
<path id="Vector_3" d="M55.6125 8.56152C54.5695 8.56152 53.6726 8.19108 52.9444 7.4592C52.2073 6.7266 51.8369 5.82912 51.8369 4.78872C51.8369 3.75588 52.2073 2.86056 52.9444 2.12904C53.6776 1.3932 54.5756 1.01736 55.6125 1.01736C56.629 1.01736 57.5224 1.39104 58.2599 2.1222C58.9984 2.8548 59.3677 3.74976 59.3677 4.78836C59.3677 5.82336 59.0006 6.71868 58.2652 7.45056C57.5338 8.1882 56.6384 8.56152 55.6125 8.56152ZM55.6125 1.39788C54.6809 1.39788 53.8732 1.73232 53.2116 2.39652C52.54 3.06684 52.2105 3.84768 52.2105 4.788C52.2105 5.73552 52.54 6.5214 53.2116 7.1892C53.8646 7.8462 54.6766 8.18244 55.6125 8.18244C56.5474 8.18244 57.3307 7.857 57.9984 7.18344C58.6564 6.52176 58.9909 5.71932 58.9909 4.788C58.9909 3.85704 58.6539 3.04812 57.9934 2.38932C57.3307 1.73016 56.5277 1.39788 55.6125 1.39788Z" fill="#4E6C2B"/>
<path id="Vector_4" d="M55.5991 7.97544C54.7323 7.97544 53.978 7.6608 53.3544 7.03836C52.7372 6.41772 52.4238 5.66028 52.4238 4.788C52.4313 3.90888 52.7455 3.15468 53.3598 2.5398C53.9712 1.92636 54.7241 1.61172 55.5984 1.61172C56.4645 1.61172 57.2192 1.92636 57.8413 2.54484C58.4632 3.15972 58.7766 3.91752 58.7766 4.78764C58.7715 5.66244 58.4549 6.41988 57.8327 7.0434C57.2195 7.66404 56.4652 7.97544 55.5991 7.97544ZM55.5991 1.9908C54.8301 1.9908 54.1678 2.26836 53.6298 2.8098C53.0772 3.35988 52.8121 4.005 52.8056 4.79016C52.8056 5.5566 53.08 6.22404 53.623 6.76872C54.1778 7.3242 54.8244 7.59636 55.5991 7.59636C56.3742 7.59636 57.0157 7.32636 57.5684 6.77196C58.1204 6.21828 58.3919 5.56776 58.4005 4.78476C58.4005 4.0104 58.1275 3.36528 57.577 2.81268C57.0279 2.26836 56.3617 1.9908 55.5991 1.9908Z" fill="#4E6C2B"/>
<path id="Vector_5" d="M57.6155 6.96168H56.4006L56.3465 6.8634C55.6925 5.67108 55.4944 5.47488 55.4596 5.44752C55.3518 5.3712 55.2064 5.32656 55.0266 5.32656H54.8439V6.96168H53.8442V2.73456H55.3672C55.8017 2.73456 56.108 2.7648 56.3333 2.826C56.5865 2.89188 56.7992 3.0348 56.9601 3.2562C57.1173 3.47148 57.1965 3.71016 57.1965 3.96252C57.1965 4.27716 57.0826 4.5612 56.8587 4.8078C56.7312 4.95612 56.5679 5.06556 56.3723 5.1408C56.5521 5.3154 56.7452 5.57316 56.9637 5.9238L57.6155 6.96168ZM56.6223 6.58296H56.9278L56.6409 6.12576C56.1746 5.36904 55.9281 5.25852 55.8665 5.24556L55.7652 5.22324C55.9489 5.4216 56.2322 5.87664 56.6223 6.58296ZM54.2214 6.58296H54.4675V4.94748H55.0273C55.2856 4.94748 55.5116 5.01516 55.6892 5.14764C55.7002 5.15487 55.7105 5.16306 55.72 5.17212V4.88304L55.8941 4.85244C56.2 4.82976 56.4232 4.73148 56.5768 4.55436C56.7434 4.3722 56.8218 4.18212 56.8218 3.96252C56.8218 3.79476 56.7645 3.62844 56.6553 3.48012C56.546 3.3318 56.4085 3.23892 56.2369 3.19752C56.0438 3.13848 55.7634 3.11364 55.3679 3.11364H54.2221V6.58296H54.2214Z" fill="#4E6C2B"/>
<path id="Vector_6" d="M55.4157 4.7934H54.4683V3.25332H55.3687C55.8032 3.25332 56.0941 3.31776 56.2635 3.44952C56.4404 3.58704 56.5321 3.78612 56.5321 4.01976C56.5321 4.26636 56.4375 4.46292 56.2556 4.60296C56.0758 4.73436 55.8007 4.7934 55.4157 4.7934ZM54.8465 4.41504H55.4167C55.7903 4.41504 55.959 4.34736 56.0339 4.29372C56.1159 4.22928 56.1571 4.1454 56.1571 4.01976C56.1587 3.96778 56.1484 3.91612 56.1271 3.86875C56.1057 3.82138 56.0738 3.77957 56.0339 3.74652C55.9981 3.72168 55.8476 3.6324 55.3698 3.6324H54.8465V4.41504Z" fill="#4E6C2B"/>
</g>
<defs>
<clipPath id="clip0_29_7521">
<rect width="59.7736" height="72" fill="white"/>
</clipPath>
</defs>
</svg>
