<svg width="90" height="90" viewBox="0 0 90 90" fill="none" xmlns="http://www.w3.org/2000/svg">
<g clip-path="url(#clip0_29_7520)">
<path d="M48.3323 18.1984C37.4857 18.1984 33.6582 35.023 30.0926 48.557C28.8028 47.2556 24.8338 43.3033 24.8297 43.3098C24.0315 42.5203 23.1147 42.7771 22.553 43.3241C21.9878 43.8925 21.9053 44.9347 22.553 45.567C22.5856 45.5951 27.931 50.9165 29.7784 52.7611C30.2881 53.2563 31.0256 53.5479 31.7625 53.1181C32.5262 52.6488 32.6308 51.8197 32.6516 51.8197C38.9844 23.4907 44.644 21.3782 48.3175 21.3782C51.4077 21.3782 54.969 23.6568 54.969 28.2149C59.5774 28.2149 62.4657 34.2605 58.7569 37.9819C61.8318 39.4672 63.2032 41.2937 63.2032 43.6049C63.2032 45.9185 61.2628 48.2805 58.4303 48.2743C55.6216 48.2743 54.1943 46.4723 52.0061 46.4645C51.0137 46.4645 50.4119 47.265 50.4119 48.0545V53.7739H46.2802V48.0758C46.2686 47.1829 45.6104 46.4807 44.7904 46.4807C44.7772 46.4807 44.4369 46.4907 44.442 46.5023L38.9084 47.1829C38.241 47.2837 37.6246 48.0073 37.6246 48.7543C37.6246 49.6302 38.3435 50.3576 39.3239 50.3455C39.4488 50.3455 39.6165 50.3455 39.6001 50.3312C39.5901 50.3312 43.1029 49.8856 43.1029 49.8856V55.5308C43.1029 56.245 43.9143 56.9456 44.6434 56.9456H51.9945C52.8493 56.9456 53.5922 56.2088 53.5922 55.344V50.1886C55.1303 51.1252 57.27 51.4878 58.3675 51.4878C62.4913 51.4878 66.4245 48.2524 66.4129 43.5058C66.3967 39.2034 63.0981 37.0544 63.0981 37.0544C65.0342 31.9077 61.9027 26.9389 57.8473 25.557C56.3853 20.2483 51.8429 18.1984 48.3323 18.1984Z" fill="#4E6C2B"/>
<path d="M48.3323 18.1984C37.4857 18.1984 33.6582 35.023 30.0926 48.557C28.8028 47.2556 24.8338 43.3033 24.8297 43.3098C24.0315 42.5203 23.1147 42.7771 22.553 43.3241C21.9878 43.8925 21.9053 44.9347 22.553 45.567C22.5856 45.5951 27.931 50.9165 29.7784 52.7611C30.2881 53.2563 31.0256 53.5479 31.7625 53.1181C32.5262 52.6488 32.6308 51.8197 32.6516 51.8197C38.9844 23.4907 44.644 21.3782 48.3175 21.3782C51.4077 21.3782 54.969 23.6568 54.969 28.2149C59.5774 28.2149 62.4657 34.2605 58.7569 37.9819C61.8318 39.4672 63.2032 41.2937 63.2032 43.6049C63.2032 45.9185 61.2628 48.2805 58.4303 48.2743C55.6216 48.2743 54.1943 46.4723 52.0061 46.4645C51.0137 46.4645 50.4119 47.265 50.4119 48.0545V53.7739H46.2802V48.0758C46.2686 47.1829 45.6104 46.4807 44.7904 46.4807C44.7772 46.4807 44.4369 46.4907 44.442 46.5023L38.9084 47.1829C38.241 47.2837 37.6246 48.0073 37.6246 48.7543C37.6246 49.6302 38.3435 50.3576 39.3239 50.3455C39.4488 50.3455 39.6165 50.3455 39.6001 50.3312C39.5901 50.3312 43.1029 49.8856 43.1029 49.8856V55.5308C43.1029 56.245 43.9143 56.9456 44.6434 56.9456H51.9945C52.8493 56.9456 53.5922 56.2088 53.5922 55.344V50.1886C55.1303 51.1252 57.27 51.4878 58.3675 51.4878C62.4913 51.4878 66.4245 48.2524 66.4129 43.5058C66.3967 39.2034 63.0981 37.0544 63.0981 37.0544C65.0342 31.9077 61.9027 26.9389 57.8473 25.557C56.3853 20.2483 51.8429 18.1984 48.3323 18.1984ZM43.7026 63.2409C43.7026 64.571 45.1892 65.3734 47.6387 66.5363C49.5816 67.4432 50.6991 68.4047 50.6991 69.1777C50.6991 70.427 49.354 70.8695 48.0928 70.8695C46.1419 70.8695 44.9902 70.0933 44.3514 68.351L44.2956 68.2038H44.1381C43.7954 68.2038 43.5222 68.22 43.3701 68.4047C43.2345 68.5834 43.2728 68.8175 43.3283 69.0454C43.324 69.04 43.7592 70.832 43.7592 70.832C43.8754 71.2675 44.0326 71.3382 44.7297 71.4754C45.0352 71.528 46.6127 71.8013 47.9491 71.8013C51.6766 71.8013 53.3403 70.2898 53.3403 68.7897C53.3403 67.6976 52.2571 66.654 49.9203 65.4884L48.8587 64.9773C47.2599 64.217 46.2913 63.765 46.2913 62.9628C46.2913 62.186 47.2941 61.6455 48.7246 61.6455C50.5931 61.6455 51.0911 62.6874 51.3201 63.5946L51.3602 63.765H51.5371C51.9527 63.765 52.2153 63.7307 52.3688 63.5636C52.4583 63.4685 52.4947 63.3373 52.4731 63.184L52.3275 61.6363C52.2865 61.1379 51.9074 61.0666 51.3807 60.9597C50.7541 60.8485 50.005 60.7124 48.8732 60.7124C45.6352 60.7121 43.7026 61.6593 43.7026 63.2409ZM54.4384 66.3737C54.4384 69.0681 56.7792 71.8013 61.2628 71.8013C63.5217 71.8013 64.7909 71.284 65.7388 70.7815L65.9939 70.647L65.5808 70.1851L65.6034 70.2083C65.5034 70.0706 65.4254 70.043 65.2734 70.043L65.0555 70.1181C64.7157 70.2752 63.6792 70.755 61.798 70.755C59.4796 70.755 56.9852 69.2463 56.9852 65.9234C56.9852 62.7625 59.6928 61.6455 62.0003 61.6455C63.6635 61.6455 64.5477 62.2371 64.7125 63.4631L64.7311 63.6632H64.9379C65.1356 63.6632 65.6614 63.6632 65.6614 63.2698V61.4282C65.6614 60.9737 65.1401 60.9119 64.9231 60.8792L64.706 60.8482C64.1742 60.7791 63.6643 60.7121 62.315 60.7121C57.7497 60.7121 54.4384 63.0938 54.4384 66.3737ZM37.5518 60.8452L33.515 60.8779L30.8252 60.8336L30.4162 60.8242C30.1764 60.8242 30.0041 60.9964 30.0041 61.2454C30.0041 61.3601 30.0041 61.7224 30.4496 61.7224C32.0753 61.7224 32.1352 61.8529 32.15 62.4755L32.1657 62.8673L32.191 64.5272V68.0993C32.191 68.6901 32.1697 69.6324 32.1312 70.3913C32.1204 70.6109 32.1093 70.8174 30.6739 70.8174C30.2668 70.8174 30.0262 70.8995 30.0262 71.2929C30.0262 71.4106 30.0262 71.7138 30.4164 71.7138H30.5065C30.678 71.7054 31.1329 71.6844 33.3794 71.6844C35.7723 71.6844 36.2523 71.7092 36.4152 71.7138H36.4993C36.8134 71.7138 37.0866 71.6844 37.0866 71.2929C37.0866 70.8541 36.7237 70.8174 36.1167 70.8174C34.6748 70.8174 34.6632 70.6108 34.6527 70.3957C34.6185 69.6985 34.5891 68.7568 34.5891 68.0985V66.8092H35.7987C37.6494 66.8092 37.8546 66.8619 38.1197 68.2848C38.1957 68.5948 38.4432 68.6339 38.6495 68.6339C39.0848 68.6339 39.1322 68.3966 39.1322 68.291L39.0955 67.7564C39.0539 67.3571 39.0337 66.9558 39.0349 66.5544V64.3652C39.0349 64.0372 38.639 64.0372 38.4279 64.0372C38.0789 64.0372 37.9978 64.2583 37.7761 65.2935C37.6739 65.686 36.91 65.9142 35.6801 65.9142H34.5891V62.6993C34.5891 61.8234 34.7438 61.8164 34.9366 61.814C35.6448 61.7813 37.3598 61.7222 37.8753 61.7222C38.3659 61.7222 38.8173 61.8345 39.1052 62.0248C40.0229 62.5913 40.4915 62.9774 40.776 63.2104C41.0543 63.4329 41.2102 63.5644 41.4361 63.5644C41.5704 63.5644 41.9595 63.5644 41.9595 63.2274C41.9595 63.1451 41.9226 63.0697 41.7975 62.7914C41.6494 62.4606 41.3976 61.919 41.0786 61.0855C40.9861 60.8204 40.6835 60.8204 40.1175 60.8204L37.5518 60.8452ZM63.1477 21.4544H63.7177C63.9785 21.4544 64.1594 21.4117 64.2643 21.338C64.3649 21.2627 64.4164 21.1555 64.4164 21.0148C64.4164 20.882 64.3649 20.7748 64.27 20.6986C64.1737 20.6249 63.9782 20.5831 63.6827 20.5831H63.1471L63.1477 21.4544ZM65.1175 23.0806H64.5439C64.1853 22.428 63.9461 22.0619 63.8401 21.976C63.7285 21.8939 63.5931 21.854 63.4257 21.854H63.1482V23.0806H62.6795V20.1932H63.684C63.9831 20.1932 64.209 20.2148 64.3732 20.2612C64.5345 20.2988 64.6661 20.389 64.7667 20.5283C64.8678 20.6625 64.9201 20.8164 64.9201 20.9743C64.9201 21.1717 64.8484 21.3485 64.7025 21.5108C64.5609 21.6731 64.3581 21.7633 64.0904 21.7843V21.7924C64.2605 21.8351 64.4887 22.0767 64.7618 22.519L65.1175 23.0806ZM63.8561 23.8382C64.4738 23.8382 64.9997 23.6222 65.4389 23.1816C65.8785 22.7401 66.1028 22.2136 66.1066 21.5913C66.1066 20.9746 65.8857 20.4465 65.4459 20.0107C65.0042 19.5749 64.4741 19.3519 63.8561 19.3519C63.2377 19.3519 62.7054 19.5711 62.2713 20.0069C61.8323 20.4465 61.6147 20.9746 61.6114 21.5913C61.6114 22.2096 61.8323 22.7401 62.2675 23.1775C62.7062 23.6168 63.234 23.8382 63.8561 23.8382ZM63.8671 18.9077C64.5998 18.9077 65.2297 19.1688 65.7574 19.6905C66.2897 20.2186 66.5526 20.8525 66.5526 21.591C66.5526 22.3313 66.2889 22.965 65.7639 23.4907C65.2375 24.0148 64.6052 24.2799 63.8671 24.2799C63.1226 24.2799 62.4843 24.0213 61.9606 23.4975C61.4284 22.9693 61.1657 22.3351 61.1657 21.591C61.1657 20.8525 61.4292 20.2226 61.9606 19.6945C62.4843 19.1688 63.1226 18.9077 63.8671 18.9077Z" fill="#4E6C2B"/>
<path d="M63.8673 24.4211C63.0821 24.4211 62.4069 24.1433 61.8587 23.5944C61.3037 23.045 61.0249 22.3718 61.0249 21.5915C61.0249 20.8169 61.3037 20.1454 61.8587 19.5968C62.4107 19.0449 63.0867 18.763 63.8673 18.763C64.6326 18.763 65.3051 19.0433 65.8604 19.5917C66.4164 20.1411 66.6944 20.8123 66.6944 21.5913C66.6944 22.3675 66.418 23.039 65.8644 23.5879C65.3138 24.1412 64.6396 24.4211 63.8673 24.4211ZM63.8673 19.0484C63.166 19.0484 62.5579 19.2992 62.0598 19.7974C61.5542 20.3001 61.3062 20.8858 61.3062 21.591C61.3062 22.3016 61.5542 22.8911 62.0598 23.3919C62.5514 23.8847 63.1627 24.1368 63.8673 24.1368C64.5711 24.1368 65.1609 23.8928 65.6635 23.3876C66.1589 22.8913 66.4107 22.2895 66.4107 21.591C66.4107 20.8928 66.157 20.2861 65.6597 19.792C65.1609 19.2976 64.5563 19.0484 63.8673 19.0484Z" fill="#4E6C2B"/>
<path d="M63.8573 23.9816C63.2047 23.9816 62.6368 23.7456 62.1674 23.2788C61.7027 22.8133 61.4668 22.2452 61.4668 21.591C61.4725 20.9317 61.7089 20.366 62.1714 19.9049C62.6317 19.4448 63.1985 19.2088 63.8567 19.2088C64.5088 19.2088 65.0769 19.4448 65.5453 19.9086C66.0134 20.3698 66.2494 20.9381 66.2494 21.5907C66.2456 22.2468 66.0072 22.8149 65.5389 23.2826C65.0772 23.748 64.5093 23.9816 63.8573 23.9816ZM63.8573 19.4931C63.2783 19.4931 62.7797 19.7013 62.3747 20.1074C61.9586 20.5199 61.7591 21.0038 61.7542 21.5926C61.7542 22.1675 61.9608 22.668 62.3696 23.0765C62.7873 23.4932 63.274 23.6973 63.8573 23.6973C64.4408 23.6973 64.9238 23.4948 65.3398 23.079C65.7554 22.6637 65.9598 22.1758 65.9663 21.5886C65.9663 21.0078 65.7608 20.524 65.3463 20.1095C64.9329 19.7013 64.4314 19.4931 63.8573 19.4931Z" fill="#4E6C2B"/>
<path d="M65.3753 23.2213H64.4607L64.4199 23.1475C63.9276 22.2533 63.7784 22.1062 63.7523 22.0856C63.6711 22.0284 63.5616 21.9949 63.4263 21.9949H63.2887V23.2213H62.5361V20.0509H63.6827C64.0098 20.0509 64.2404 20.0736 64.41 20.1195C64.6006 20.1689 64.7608 20.2761 64.8819 20.4421C65.0002 20.6036 65.0598 20.7826 65.0598 20.9719C65.0598 21.2079 64.9741 21.4209 64.8055 21.6058C64.7096 21.7171 64.5866 21.7992 64.4394 21.8556C64.5747 21.9865 64.7201 22.1799 64.8846 22.4428L65.3753 23.2213ZM64.6276 22.9372H64.8576L64.6416 22.5943C64.2905 22.0268 64.105 21.9439 64.0586 21.9342L63.9823 21.9174C64.1206 22.0662 64.3339 22.4075 64.6276 22.9372ZM62.8201 22.9372H63.0053V21.7106H63.4268C63.6212 21.7106 63.7914 21.7614 63.9251 21.8607C63.9334 21.8662 63.9411 21.8723 63.9483 21.8791V21.6623L64.0794 21.6393C64.3097 21.6223 64.4776 21.5486 64.5933 21.4158C64.7187 21.2791 64.7778 21.1366 64.7778 20.9719C64.7778 20.8461 64.7346 20.7213 64.6524 20.6101C64.5701 20.4988 64.4666 20.4292 64.3374 20.3981C64.1921 20.3539 63.9809 20.3352 63.6832 20.3352H62.8206V22.9372H62.8201Z" fill="#4E6C2B"/>
<path d="M63.7191 21.595H63.0059V20.44H63.6838C64.0109 20.44 64.2298 20.4883 64.3574 20.5871C64.4906 20.6903 64.5596 20.8396 64.5596 21.0148C64.5596 21.1998 64.4884 21.3472 64.3514 21.4522C64.2161 21.5508 64.009 21.595 63.7191 21.595ZM63.2906 21.3113H63.7199C64.0012 21.3113 64.1282 21.2605 64.1845 21.2203C64.2463 21.172 64.2773 21.109 64.2773 21.0148C64.2785 20.9758 64.2708 20.9371 64.2547 20.9016C64.2386 20.866 64.2146 20.8347 64.1845 20.8099C64.1576 20.7913 64.0443 20.7243 63.6846 20.7243H63.2906V21.3113Z" fill="#4E6C2B"/>
</g>
<defs>
<clipPath id="clip0_29_7520">
<rect width="45" height="54" fill="white" transform="translate(22 18)"/>
</clipPath>
</defs>
</svg>
