<svg width="134" height="28" viewBox="0 0 134 28" fill="none" xmlns="http://www.w3.org/2000/svg">
<g id="millwood 1">
<path id="Vector" d="M16.637 20.3858L7.62516 11.3691C5.13862 13.857 5.13862 17.898 7.62516 20.3858C10.1117 22.8888 14.1504 22.8888 16.637 20.3858Z" fill="#419B44"/>
<path id="Vector_2" d="M21.2032 17.4756L20.9319 7.0717L10.5186 6.80029L21.2032 17.4756Z" fill="#419B44"/>
<path id="Vector_3" d="M20.9019 19.8577L8.13759 7.08655C7.74577 7.41827 7.39916 7.76507 7.06763 8.15709L19.8319 20.9282C20.2237 20.6116 20.5854 20.2497 20.9019 19.8577Z" fill="#74787F"/>
<path id="Vector_4" d="M23.1178 7.94622L23.6603 5.94084L24.248 3.75452L22.0629 4.34256L20.0586 4.88538C21.2642 5.68451 22.304 6.7249 23.1178 7.94622Z" fill="#74787F"/>
<path id="Vector_5" d="M23.7957 9.12244C24.4286 10.404 24.8205 11.8215 24.9108 13.3141L27.9701 10.2533L23.7957 9.12244Z" fill="#74787F"/>
<path id="Vector_6" d="M26.3875 16.1486L24.9256 14.686C24.8353 16.1787 24.4434 17.5961 23.8105 18.8777L25.8148 18.3349L28 17.7469L26.3875 16.1486Z" fill="#74787F"/>
<path id="Vector_7" d="M23.1178 20.0541C22.304 21.2754 21.2642 22.3158 20.0586 23.1149L22.0629 23.6578L24.248 24.2458L23.6603 22.0595L23.1178 20.0541Z" fill="#74787F"/>
<path id="Vector_8" d="M14.6787 24.924L17.738 27.9849L18.3257 25.7985L18.8682 23.7931C17.5872 24.4415 16.1707 24.8336 14.6787 24.924Z" fill="#74787F"/>
<path id="Vector_9" d="M9.11719 23.8082L9.65969 25.8136L10.2474 27.9999L13.3067 24.9391C11.8147 24.8336 10.3981 24.4415 9.11719 23.8082Z" fill="#74787F"/>
<path id="Vector_10" d="M4.86755 20.0538L4.32503 22.0592L3.7373 24.2455L5.92245 23.6575L7.92676 23.1147C6.72116 22.3155 5.68133 21.2752 4.86755 20.0538Z" fill="#74787F"/>
<path id="Vector_11" d="M3.07483 14.6862L0.015625 17.747L2.20077 18.335L4.20508 18.8778C3.55707 17.5962 3.16525 16.1788 3.07483 14.6862Z" fill="#74787F"/>
<path id="Vector_12" d="M4.18945 9.13733L2.18515 9.66513L0 10.2531L3.0592 13.314C3.16469 11.8213 3.55652 10.4039 4.18945 9.13733Z" fill="#74787F"/>
<path id="Vector_13" d="M4.86755 7.9461C5.68133 6.72477 6.72116 5.68439 7.92676 4.88525L5.92245 4.34244L3.7373 3.75439L4.32503 5.94071L4.86755 7.9461Z" fill="#74787F"/>
<path id="Vector_14" d="M13.3067 3.07587L10.2474 0.0150146L9.65969 2.20133L9.11719 4.20672C10.3981 3.55836 11.8147 3.16634 13.3067 3.07587Z" fill="#74787F"/>
<path id="Vector_15" d="M18.867 4.19171L18.3395 2.18632L17.7518 0L14.6926 3.06086C16.1695 3.1664 17.586 3.55842 18.867 4.19171Z" fill="#74787F"/>
<path id="Vector_16" d="M15.2966 1.20642L14.0006 2.9404L12.6895 1.20642H15.2966Z" fill="#419B44"/>
<path id="Vector_17" d="M12.6895 26.7939L14.0006 25.0599L15.2966 26.7939H12.6895Z" fill="#419B44"/>
<path id="Vector_18" d="M8.74041 2.27673L8.46915 4.41782L6.46484 3.57346L8.74041 2.27673Z" fill="#419B44"/>
<path id="Vector_19" d="M19.259 25.7232L19.5152 23.582L21.5195 24.4264L19.259 25.7232Z" fill="#419B44"/>
<path id="Vector_20" d="M3.57141 6.46875L4.41533 8.47414L2.27539 8.74553L3.57141 6.46875Z" fill="#419B44"/>
<path id="Vector_21" d="M24.4138 21.5312L23.5698 19.5259L25.7097 19.2695L24.4138 21.5312Z" fill="#419B44"/>
<path id="Vector_22" d="M1.20557 12.6957L2.93861 14.0075L1.20557 15.3042V12.6957Z" fill="#419B44"/>
<path id="Vector_23" d="M26.7793 15.3042L25.0461 14.0075L26.7793 12.6957V15.3042Z" fill="#419B44"/>
<path id="Vector_24" d="M2.27539 19.2698L4.41533 19.5261L3.57141 21.5315L2.27539 19.2698Z" fill="#419B44"/>
<path id="Vector_25" d="M25.7097 8.74553L23.5698 8.47414L24.4138 6.46875L25.7097 8.74553Z" fill="#419B44"/>
<path id="Vector_26" d="M6.46484 24.4264L8.46915 23.582L8.74041 25.7232L6.46484 24.4264Z" fill="#419B44"/>
<path id="Vector_27" d="M21.5195 3.57346L19.5152 4.41782L19.259 2.27673L21.5195 3.57346Z" fill="#419B44"/>
<path id="Vector_28" d="M16.637 20.3858L7.62516 11.3691C5.13862 13.857 5.13862 17.898 7.62516 20.3858C10.1117 22.8888 14.1504 22.8888 16.637 20.3858Z" fill="#419B44"/>
<path id="Vector_29" d="M21.2032 17.4756L20.9319 7.0717L10.5186 6.80029L21.2032 17.4756Z" fill="#419B44"/>
<path id="Vector_30" d="M20.9019 19.8577L8.13759 7.08655C7.74577 7.41827 7.39916 7.76507 7.06763 8.15709L19.8319 20.9282C20.2237 20.6116 20.5854 20.2497 20.9019 19.8577Z" fill="#74787F"/>
<path id="Vector_31" d="M23.1178 7.94622L23.6603 5.94084L24.248 3.75452L22.0629 4.34256L20.0586 4.88538C21.2642 5.68451 22.304 6.7249 23.1178 7.94622Z" fill="#74787F"/>
<path id="Vector_32" d="M23.7957 9.12244C24.4286 10.404 24.8205 11.8215 24.9108 13.3141L27.9701 10.2533L23.7957 9.12244Z" fill="#74787F"/>
<path id="Vector_33" d="M26.3875 16.1486L24.9256 14.686C24.8353 16.1787 24.4434 17.5961 23.8105 18.8777L25.8148 18.3349L28 17.7469L26.3875 16.1486Z" fill="#74787F"/>
<path id="Vector_34" d="M23.1178 20.0541C22.304 21.2754 21.2642 22.3158 20.0586 23.1149L22.0629 23.6578L24.248 24.2458L23.6603 22.0595L23.1178 20.0541Z" fill="#74787F"/>
<path id="Vector_35" d="M14.6787 24.924L17.738 27.9849L18.3257 25.7985L18.8682 23.7931C17.5872 24.4415 16.1707 24.8336 14.6787 24.924Z" fill="#74787F"/>
<path id="Vector_36" d="M9.11719 23.8082L9.65969 25.8136L10.2474 27.9999L13.3067 24.9391C11.8147 24.8336 10.3981 24.4415 9.11719 23.8082Z" fill="#74787F"/>
<path id="Vector_37" d="M4.86755 20.0538L4.32503 22.0592L3.7373 24.2455L5.92245 23.6575L7.92676 23.1147C6.72116 22.3155 5.68133 21.2752 4.86755 20.0538Z" fill="#74787F"/>
<path id="Vector_38" d="M3.07483 14.6862L0.015625 17.747L2.20077 18.335L4.20508 18.8778C3.55707 17.5962 3.16525 16.1788 3.07483 14.6862Z" fill="#74787F"/>
<path id="Vector_39" d="M4.18945 9.13733L2.18515 9.66513L0 10.2531L3.0592 13.314C3.16469 11.8213 3.55652 10.4039 4.18945 9.13733Z" fill="#74787F"/>
<path id="Vector_40" d="M4.86755 7.9461C5.68133 6.72477 6.72116 5.68439 7.92676 4.88525L5.92245 4.34244L3.7373 3.75439L4.32503 5.94071L4.86755 7.9461Z" fill="#74787F"/>
<path id="Vector_41" d="M13.3067 3.07587L10.2474 0.0150146L9.65969 2.20133L9.11719 4.20672C10.3981 3.55836 11.8147 3.16634 13.3067 3.07587Z" fill="#74787F"/>
<path id="Vector_42" d="M18.867 4.19171L18.3395 2.18632L17.7518 0L14.6926 3.06086C16.1695 3.1664 17.586 3.55842 18.867 4.19171Z" fill="#74787F"/>
<path id="Vector_43" d="M15.2966 1.20642L14.0006 2.9404L12.6895 1.20642H15.2966Z" fill="#419B44"/>
<path id="Vector_44" d="M12.6895 26.7939L14.0006 25.0599L15.2966 26.7939H12.6895Z" fill="#419B44"/>
<path id="Vector_45" d="M8.74041 2.27673L8.46915 4.41782L6.46484 3.57346L8.74041 2.27673Z" fill="#419B44"/>
<path id="Vector_46" d="M19.259 25.7232L19.5152 23.582L21.5195 24.4264L19.259 25.7232Z" fill="#419B44"/>
<path id="Vector_47" d="M3.57141 6.46875L4.41533 8.47414L2.27539 8.74553L3.57141 6.46875Z" fill="#419B44"/>
<path id="Vector_48" d="M24.4138 21.5312L23.5698 19.5259L25.7097 19.2695L24.4138 21.5312Z" fill="#419B44"/>
<path id="Vector_49" d="M1.20557 12.6957L2.93861 14.0075L1.20557 15.3042V12.6957Z" fill="#419B44"/>
<path id="Vector_50" d="M26.7793 15.3042L25.0461 14.0075L26.7793 12.6957V15.3042Z" fill="#419B44"/>
<path id="Vector_51" d="M2.27539 19.2698L4.41533 19.5261L3.57141 21.5315L2.27539 19.2698Z" fill="#419B44"/>
<path id="Vector_52" d="M25.7097 8.74553L23.5698 8.47414L24.4138 6.46875L25.7097 8.74553Z" fill="#419B44"/>
<path id="Vector_53" d="M6.46484 24.4264L8.46915 23.582L8.74041 25.7232L6.46484 24.4264Z" fill="#419B44"/>
<path id="Vector_54" d="M21.5195 3.57346L19.5152 4.41782L19.259 2.27673L21.5195 3.57346Z" fill="#419B44"/>
<path id="Vector_55" d="M16.637 20.3858L7.62516 11.3691C5.13862 13.857 5.13862 17.898 7.62516 20.3858C10.1117 22.8888 14.1504 22.8888 16.637 20.3858Z" fill="#419B44"/>
<path id="Vector_56" d="M21.2032 17.4756L20.9319 7.0717L10.5186 6.80029L21.2032 17.4756Z" fill="#419B44"/>
<path id="Vector_57" d="M20.9019 19.8577L8.13759 7.08655C7.74577 7.41827 7.39916 7.76507 7.06763 8.15709L19.8319 20.9282C20.2237 20.6116 20.5854 20.2497 20.9019 19.8577Z" fill="#74787F"/>
<path id="Vector_58" d="M23.1178 7.94622L23.6603 5.94084L24.248 3.75452L22.0629 4.34256L20.0586 4.88538C21.2642 5.68451 22.304 6.7249 23.1178 7.94622Z" fill="#74787F"/>
<path id="Vector_59" d="M23.7957 9.12244C24.4286 10.404 24.8205 11.8215 24.9108 13.3141L27.9701 10.2533L23.7957 9.12244Z" fill="#74787F"/>
<path id="Vector_60" d="M26.3875 16.1486L24.9256 14.686C24.8353 16.1787 24.4434 17.5961 23.8105 18.8777L25.8148 18.3349L28 17.7469L26.3875 16.1486Z" fill="#74787F"/>
<path id="Vector_61" d="M23.1178 20.0541C22.304 21.2754 21.2642 22.3158 20.0586 23.1149L22.0629 23.6578L24.248 24.2458L23.6603 22.0595L23.1178 20.0541Z" fill="#74787F"/>
<path id="Vector_62" d="M14.6787 24.924L17.738 27.9849L18.3257 25.7985L18.8682 23.7931C17.5872 24.4415 16.1707 24.8336 14.6787 24.924Z" fill="#74787F"/>
<path id="Vector_63" d="M9.11719 23.8082L9.65969 25.8136L10.2474 27.9999L13.3067 24.9391C11.8147 24.8336 10.3981 24.4415 9.11719 23.8082Z" fill="#74787F"/>
<path id="Vector_64" d="M4.86755 20.0538L4.32503 22.0592L3.7373 24.2455L5.92245 23.6575L7.92676 23.1147C6.72116 22.3155 5.68133 21.2752 4.86755 20.0538Z" fill="#74787F"/>
<path id="Vector_65" d="M3.07483 14.6862L0.015625 17.747L2.20077 18.335L4.20508 18.8778C3.55707 17.5962 3.16525 16.1788 3.07483 14.6862Z" fill="#74787F"/>
<path id="Vector_66" d="M4.18945 9.13733L2.18515 9.66513L0 10.2531L3.0592 13.314C3.16469 11.8213 3.55652 10.4039 4.18945 9.13733Z" fill="#74787F"/>
<path id="Vector_67" d="M4.86755 7.9461C5.68133 6.72477 6.72116 5.68439 7.92676 4.88525L5.92245 4.34244L3.7373 3.75439L4.32503 5.94071L4.86755 7.9461Z" fill="#74787F"/>
<path id="Vector_68" d="M13.3067 3.07587L10.2474 0.0150146L9.65969 2.20133L9.11719 4.20672C10.3981 3.55836 11.8147 3.16634 13.3067 3.07587Z" fill="#74787F"/>
<path id="Vector_69" d="M18.867 4.19171L18.3395 2.18632L17.7518 0L14.6926 3.06086C16.1695 3.1664 17.586 3.55842 18.867 4.19171Z" fill="#74787F"/>
<path id="Vector_70" d="M15.2966 1.20642L14.0006 2.9404L12.6895 1.20642H15.2966Z" fill="#419B44"/>
<path id="Vector_71" d="M12.6895 26.7939L14.0006 25.0599L15.2966 26.7939H12.6895Z" fill="#419B44"/>
<path id="Vector_72" d="M8.74041 2.27673L8.46915 4.41782L6.46484 3.57346L8.74041 2.27673Z" fill="#419B44"/>
<path id="Vector_73" d="M19.259 25.7232L19.5152 23.582L21.5195 24.4264L19.259 25.7232Z" fill="#419B44"/>
<path id="Vector_74" d="M3.57141 6.46875L4.41533 8.47414L2.27539 8.74553L3.57141 6.46875Z" fill="#419B44"/>
<path id="Vector_75" d="M24.4138 21.5312L23.5698 19.5259L25.7097 19.2695L24.4138 21.5312Z" fill="#419B44"/>
<path id="Vector_76" d="M1.20557 12.6957L2.93861 14.0075L1.20557 15.3042V12.6957Z" fill="#419B44"/>
<path id="Vector_77" d="M26.7793 15.3042L25.0461 14.0075L26.7793 12.6957V15.3042Z" fill="#419B44"/>
<path id="Vector_78" d="M2.27539 19.2698L4.41533 19.5261L3.57141 21.5315L2.27539 19.2698Z" fill="#419B44"/>
<path id="Vector_79" d="M25.7097 8.74553L23.5698 8.47414L24.4138 6.46875L25.7097 8.74553Z" fill="#419B44"/>
<path id="Vector_80" d="M6.46484 24.4264L8.46915 23.582L8.74041 25.7232L6.46484 24.4264Z" fill="#419B44"/>
<path id="Vector_81" d="M21.5195 3.57346L19.5152 4.41782L19.259 2.27673L21.5195 3.57346Z" fill="#419B44"/>
<path id="Vector_82" d="M16.637 20.3858L7.62516 11.3691C5.13862 13.857 5.13862 17.898 7.62516 20.3858C10.1117 22.8888 14.1504 22.8888 16.637 20.3858Z" fill="#419B44"/>
<path id="Vector_83" d="M21.2032 17.4756L20.9319 7.0717L10.5186 6.80029L21.2032 17.4756Z" fill="#419B44"/>
<path id="Vector_84" d="M20.9019 19.8577L8.13759 7.08655C7.74577 7.41827 7.39916 7.76507 7.06763 8.15709L19.8319 20.9282C20.2237 20.6116 20.5854 20.2497 20.9019 19.8577Z" fill="#74787F"/>
<path id="Vector_85" d="M23.1178 7.94622L23.6603 5.94084L24.248 3.75452L22.0629 4.34256L20.0586 4.88538C21.2642 5.68451 22.304 6.7249 23.1178 7.94622Z" fill="#74787F"/>
<path id="Vector_86" d="M23.7957 9.12244C24.4286 10.404 24.8205 11.8215 24.9108 13.3141L27.9701 10.2533L23.7957 9.12244Z" fill="#74787F"/>
<path id="Vector_87" d="M26.3875 16.1486L24.9256 14.686C24.8353 16.1787 24.4434 17.5961 23.8105 18.8777L25.8148 18.3349L28 17.7469L26.3875 16.1486Z" fill="#74787F"/>
<path id="Vector_88" d="M23.1178 20.0541C22.304 21.2754 21.2642 22.3158 20.0586 23.1149L22.0629 23.6578L24.248 24.2458L23.6603 22.0595L23.1178 20.0541Z" fill="#74787F"/>
<path id="Vector_89" d="M14.6787 24.924L17.738 27.9849L18.3257 25.7985L18.8682 23.7931C17.5872 24.4415 16.1707 24.8336 14.6787 24.924Z" fill="#74787F"/>
<path id="Vector_90" d="M9.11719 23.8082L9.65969 25.8136L10.2474 27.9999L13.3067 24.9391C11.8147 24.8336 10.3981 24.4415 9.11719 23.8082Z" fill="#74787F"/>
<path id="Vector_91" d="M4.86755 20.0538L4.32503 22.0592L3.7373 24.2455L5.92245 23.6575L7.92676 23.1147C6.72116 22.3155 5.68133 21.2752 4.86755 20.0538Z" fill="#74787F"/>
<path id="Vector_92" d="M3.07483 14.6862L0.015625 17.747L2.20077 18.335L4.20508 18.8778C3.55707 17.5962 3.16525 16.1788 3.07483 14.6862Z" fill="#74787F"/>
<path id="Vector_93" d="M4.18945 9.13733L2.18515 9.66513L0 10.2531L3.0592 13.314C3.16469 11.8213 3.55652 10.4039 4.18945 9.13733Z" fill="#74787F"/>
<path id="Vector_94" d="M4.86755 7.9461C5.68133 6.72477 6.72116 5.68439 7.92676 4.88525L5.92245 4.34244L3.7373 3.75439L4.32503 5.94071L4.86755 7.9461Z" fill="#74787F"/>
<path id="Vector_95" d="M13.3067 3.07587L10.2474 0.0150146L9.65969 2.20133L9.11719 4.20672C10.3981 3.55836 11.8147 3.16634 13.3067 3.07587Z" fill="#74787F"/>
<path id="Vector_96" d="M18.867 4.19171L18.3395 2.18632L17.7518 0L14.6926 3.06086C16.1695 3.1664 17.586 3.55842 18.867 4.19171Z" fill="#74787F"/>
<path id="Vector_97" d="M15.2966 1.20642L14.0006 2.9404L12.6895 1.20642H15.2966Z" fill="#419B44"/>
<path id="Vector_98" d="M12.6895 26.7939L14.0006 25.0599L15.2966 26.7939H12.6895Z" fill="#419B44"/>
<path id="Vector_99" d="M8.74041 2.27673L8.46915 4.41782L6.46484 3.57346L8.74041 2.27673Z" fill="#419B44"/>
<path id="Vector_100" d="M19.259 25.7232L19.5152 23.582L21.5195 24.4264L19.259 25.7232Z" fill="#419B44"/>
<path id="Vector_101" d="M3.57141 6.46875L4.41533 8.47414L2.27539 8.74553L3.57141 6.46875Z" fill="#419B44"/>
<path id="Vector_102" d="M24.4138 21.5312L23.5698 19.5259L25.7097 19.2695L24.4138 21.5312Z" fill="#419B44"/>
<path id="Vector_103" d="M1.20557 12.6957L2.93861 14.0075L1.20557 15.3042V12.6957Z" fill="#419B44"/>
<path id="Vector_104" d="M26.7793 15.3042L25.0461 14.0075L26.7793 12.6957V15.3042Z" fill="#419B44"/>
<path id="Vector_105" d="M2.27539 19.2698L4.41533 19.5261L3.57141 21.5315L2.27539 19.2698Z" fill="#419B44"/>
<path id="Vector_106" d="M25.7097 8.74553L23.5698 8.47414L24.4138 6.46875L25.7097 8.74553Z" fill="#419B44"/>
<path id="Vector_107" d="M6.46484 24.4264L8.46915 23.582L8.74041 25.7232L6.46484 24.4264Z" fill="#419B44"/>
<path id="Vector_108" d="M21.5195 3.57346L19.5152 4.41782L19.259 2.27673L21.5195 3.57346Z" fill="#419B44"/>
<path id="Vector_109" d="M16.637 20.3858L7.62516 11.3691C5.13862 13.857 5.13862 17.898 7.62516 20.3858C10.1117 22.8888 14.1504 22.8888 16.637 20.3858Z" fill="#419B44"/>
<path id="Vector_110" d="M21.2032 17.4756L20.9319 7.0717L10.5186 6.80029L21.2032 17.4756Z" fill="#419B44"/>
<path id="Vector_111" d="M20.9019 19.8577L8.13759 7.08655C7.74577 7.41827 7.39916 7.76507 7.06763 8.15709L19.8319 20.9282C20.2237 20.6116 20.5854 20.2497 20.9019 19.8577Z" fill="#74787F"/>
<path id="Vector_112" d="M23.1178 7.94622L23.6603 5.94084L24.248 3.75452L22.0629 4.34256L20.0586 4.88538C21.2642 5.68451 22.304 6.7249 23.1178 7.94622Z" fill="#74787F"/>
<path id="Vector_113" d="M23.7957 9.12244C24.4286 10.404 24.8205 11.8215 24.9108 13.3141L27.9701 10.2533L23.7957 9.12244Z" fill="#74787F"/>
<path id="Vector_114" d="M26.3875 16.1486L24.9256 14.686C24.8353 16.1787 24.4434 17.5961 23.8105 18.8777L25.8148 18.3349L28 17.7469L26.3875 16.1486Z" fill="#74787F"/>
<path id="Vector_115" d="M23.1178 20.0541C22.304 21.2754 21.2642 22.3158 20.0586 23.1149L22.0629 23.6578L24.248 24.2458L23.6603 22.0595L23.1178 20.0541Z" fill="#74787F"/>
<path id="Vector_116" d="M14.6787 24.924L17.738 27.9849L18.3257 25.7985L18.8682 23.7931C17.5872 24.4415 16.1707 24.8336 14.6787 24.924Z" fill="#74787F"/>
<path id="Vector_117" d="M9.11719 23.8082L9.65969 25.8136L10.2474 27.9999L13.3067 24.9391C11.8147 24.8336 10.3981 24.4415 9.11719 23.8082Z" fill="#74787F"/>
<path id="Vector_118" d="M4.86755 20.0538L4.32503 22.0592L3.7373 24.2455L5.92245 23.6575L7.92676 23.1147C6.72116 22.3155 5.68133 21.2752 4.86755 20.0538Z" fill="#74787F"/>
<path id="Vector_119" d="M3.07483 14.6862L0.015625 17.747L2.20077 18.335L4.20508 18.8778C3.55707 17.5962 3.16525 16.1788 3.07483 14.6862Z" fill="#74787F"/>
<path id="Vector_120" d="M4.18945 9.13733L2.18515 9.66513L0 10.2531L3.0592 13.314C3.16469 11.8213 3.55652 10.4039 4.18945 9.13733Z" fill="#74787F"/>
<path id="Vector_121" d="M4.86755 7.9461C5.68133 6.72477 6.72116 5.68439 7.92676 4.88525L5.92245 4.34244L3.7373 3.75439L4.32503 5.94071L4.86755 7.9461Z" fill="#74787F"/>
<path id="Vector_122" d="M13.3067 3.07587L10.2474 0.0150146L9.65969 2.20133L9.11719 4.20672C10.3981 3.55836 11.8147 3.16634 13.3067 3.07587Z" fill="#74787F"/>
<path id="Vector_123" d="M18.867 4.19171L18.3395 2.18632L17.7518 0L14.6926 3.06086C16.1695 3.1664 17.586 3.55842 18.867 4.19171Z" fill="#74787F"/>
<path id="Vector_124" d="M15.2966 1.20642L14.0006 2.9404L12.6895 1.20642H15.2966Z" fill="#419B44"/>
<path id="Vector_125" d="M12.6895 26.7939L14.0006 25.0599L15.2966 26.7939H12.6895Z" fill="#419B44"/>
<path id="Vector_126" d="M8.74041 2.27673L8.46915 4.41782L6.46484 3.57346L8.74041 2.27673Z" fill="#419B44"/>
<path id="Vector_127" d="M19.259 25.7232L19.5152 23.582L21.5195 24.4264L19.259 25.7232Z" fill="#419B44"/>
<path id="Vector_128" d="M3.57141 6.46875L4.41533 8.47414L2.27539 8.74553L3.57141 6.46875Z" fill="#419B44"/>
<path id="Vector_129" d="M24.4138 21.5312L23.5698 19.5259L25.7097 19.2695L24.4138 21.5312Z" fill="#419B44"/>
<path id="Vector_130" d="M1.20557 12.6957L2.93861 14.0075L1.20557 15.3042V12.6957Z" fill="#419B44"/>
<path id="Vector_131" d="M26.7793 15.3042L25.0461 14.0075L26.7793 12.6957V15.3042Z" fill="#419B44"/>
<path id="Vector_132" d="M2.27539 19.2698L4.41533 19.5261L3.57141 21.5315L2.27539 19.2698Z" fill="#419B44"/>
<path id="Vector_133" d="M25.7097 8.74553L23.5698 8.47414L24.4138 6.46875L25.7097 8.74553Z" fill="#419B44"/>
<path id="Vector_134" d="M6.46484 24.4264L8.46915 23.582L8.74041 25.7232L6.46484 24.4264Z" fill="#419B44"/>
<path id="Vector_135" d="M21.5195 3.57346L19.5152 4.41782L19.259 2.27673L21.5195 3.57346Z" fill="#419B44"/>
<path id="Vector_136" d="M50.3822 7.78748V20.125H46.9522V13.3175L44.6247 20.125H41.7547L39.4097 13.265V20.125H35.9797V7.78748H40.1272L43.2247 15.8025L46.2522 7.78748H50.3822ZM55.7647 7.78748V20.125H52.3347V7.78748H55.7647ZM61.1481 17.5H64.9806V20.125H57.7181V7.78748H61.1481V17.5ZM69.7442 17.5H73.5767V20.125H66.3142V7.78748H69.7442V17.5Z" fill="#74787F"/>
<path id="Vector_137" d="M92.2879 7.78759L89.2604 20.1251H85.0431L83.3456 12.5651L81.6131 20.1251H77.3956L74.4031 7.78759H78.1131L79.5481 16.2226L81.4906 7.78759H85.2531L87.1431 16.1526L88.5779 7.78759H92.2879ZM99.6589 20.2476C98.5039 20.2476 97.4416 19.9792 96.4739 19.4426C95.5053 18.8942 94.7353 18.1417 94.1639 17.1851C93.6039 16.2167 93.3239 15.126 93.3239 13.9126C93.3239 12.6992 93.6039 11.6142 94.1639 10.6576C94.7353 9.68923 95.5053 8.93673 96.4739 8.40009C97.4416 7.86343 98.5039 7.59509 99.6589 7.59509C100.825 7.59509 101.887 7.86343 102.844 8.40009C103.812 8.93673 104.576 9.68923 105.136 10.6576C105.696 11.6142 105.976 12.6992 105.976 13.9126C105.976 15.126 105.696 16.2167 105.136 17.1851C104.576 18.1417 103.812 18.8942 102.844 19.4426C101.875 19.9792 100.814 20.2476 99.6589 20.2476ZM99.6589 17.0626C100.534 17.0626 101.222 16.7767 101.724 16.2051C102.237 15.6335 102.494 14.8692 102.494 13.9126C102.494 12.9326 102.237 12.1626 101.724 11.6026C101.222 11.031 100.534 10.7451 99.6589 10.7451C98.7717 10.7451 98.0778 11.031 97.5764 11.6026C97.0741 12.1626 96.8239 12.9326 96.8239 13.9126C96.8239 14.881 97.0741 15.651 97.5764 16.2226C98.0778 16.7826 98.7717 17.0626 99.6589 17.0626ZM113.433 20.2476C112.278 20.2476 111.216 19.9792 110.248 19.4426C109.28 18.8942 108.51 18.1417 107.938 17.1851C107.378 16.2167 107.098 15.126 107.098 13.9126C107.098 12.6992 107.378 11.6142 107.938 10.6576C108.51 9.68923 109.28 8.93673 110.248 8.40009C111.216 7.86343 112.278 7.59509 113.433 7.59509C114.6 7.59509 115.661 7.86343 116.618 8.40009C117.586 8.93673 118.351 9.68923 118.911 10.6576C119.471 11.6142 119.751 12.6992 119.751 13.9126C119.751 15.126 119.471 16.2167 118.911 17.1851C118.351 18.1417 117.586 18.8942 116.618 19.4426C115.65 19.9792 114.588 20.2476 113.433 20.2476ZM113.433 17.0626C114.308 17.0626 114.996 16.7767 115.498 16.2051C116.011 15.6335 116.268 14.8692 116.268 13.9126C116.268 12.9326 116.011 12.1626 115.498 11.6026C114.996 11.031 114.308 10.7451 113.433 10.7451C112.546 10.7451 111.852 11.031 111.351 11.6026C110.848 12.1626 110.598 12.9326 110.598 13.9126C110.598 14.881 110.848 15.651 111.351 16.2226C111.852 16.7826 112.546 17.0626 113.433 17.0626ZM126.175 7.78759C127.47 7.78759 128.601 8.05009 129.57 8.57509C130.55 9.08846 131.302 9.81173 131.827 10.7451C132.352 11.6785 132.615 12.746 132.615 13.9476C132.615 15.1376 132.346 16.1992 131.81 17.1326C131.285 18.066 130.532 18.801 129.552 19.3376C128.584 19.8626 127.459 20.1251 126.175 20.1251H121.292V7.78759H126.175ZM125.912 17.0976C126.916 17.0976 127.704 16.8235 128.275 16.2751C128.846 15.7267 129.132 14.951 129.132 13.9476C129.132 12.9326 128.846 12.151 128.275 11.6026C127.704 11.0426 126.916 10.7626 125.912 10.7626H124.722V17.0976H125.912Z" fill="#419B44"/>
</g>
</svg>
